{
.appVersion = "3343";
.formatVersion = 3;
DisplayStrings = (
a,
V,
W,
"ABCDEFGHIJKLMNOPQRSTUVWXNMVYZ 0123456789
abcdefghijklmnopqrstuvwxyz"
);
axes = (
{
name = Inktrap;
tag = INKY;
}
);
date = "2023-04-16 14:03:46 +0000";
familyName = "Fitz Variable Inktrap";
fontMaster = (
{
axesValues = (
0
);
id = m01;
metricValues = (
{
over = 10;
pos = 755;
},
{
over = 10;
pos = 690;
},
{
over = 10;
pos = 500;
},
{
over = -10;
},
{
over = -10;
pos = -240;
},
{
}
);
name = Book;
},
{
axesValues = (
400
);
iconName = Light_SemiExtended;
id = "DEC8ED1F-2163-436F-ADFD-2EB8129389B9";
metricValues = (
{
over = 10;
pos = 755;
},
{
over = 10;
pos = 690;
},
{
over = 10;
pos = 500;
},
{
over = -10;
},
{
over = -10;
pos = -240;
},
{
}
);
name = Inktrap;
}
);
glyphs = (
{
glyphname = A;
lastChange = "2023-05-18 23:38:39 +0000";
layers = (
{
layerId = m01;
shapes = (
{
closed = 1;
nodes = (
(345,700,ls),
(334,700,o),
(321,700,o),
(293,700,cs),
(281,700,l),
(88,55,l),
(-4,39,l),
(-4,0,l),
(110,4,l),
(213,0,l),
(213,39,l),
(152,54,l),
(202,222,l),
(451,221,l),
(507,54,l),
(444,39,l),
(444,0,l),
(563,4,l),
(703,0,l),
(703,39,l),
(612,55,l),
(399,700,l)
);
},
{
closed = 1;
nodes = (
(320,617,l),
(326,599,l),
(329,589,l),
(332,579,l),
(439,259,l),
(213,259,l)
);
}
);
width = 687;
},
{
layerId = "DEC8ED1F-2163-436F-ADFD-2EB8129389B9";
shapes = (
{
closed = 1;
nodes = (
(345,700,ls),
(334,700,o),
(321,700,o),
(293,700,cs),
(281,700,l),
(88,55,l),
(-4,39,l),
(-4,0,l),
(110,4,l),
(213,0,l),
(213,39,l),
(152,54,l),
(202,222,l),
(451,221,l),
(507,54,l),
(444,39,l),
(444,0,l),
(563,4,l),
(703,0,l),
(703,39,l),
(612,55,l),
(399,700,l)
);
},
{
closed = 1;
nodes = (
(320,617,l),
(326,637,l),
(351,637,l),
(333,574,l),
(440,254,l),
(213,259,l)
);
}
);
width = 687;
}
);
unicode = 65;
},
{
glyphname = B;
lastChange = "2023-05-18 23:38:06 +0000";
layers = (
{
layerId = m01;
shapes = (
{
closed = 1;
nodes = (
(623,0,o),
(668,300,o),
(489,367,cs),
(479,371,o),
(468,374,o),
(456,376,c),
(458,377,o),
(459,377,o),
(461,378,cs),
(471,381,o),
(480,386,o),
(489,391,cs),
(604,462,o),
(616,700,o),
(360,700,cs),
(327,700,o),
(237,700,o),
(220,700,c),
(219,693,o),
(219,372,o),
(219,0,c),
(312,0,o),
(411,0,o),
(374,0,cs)
);
},
{
closed = 1;
nodes = (
(219,0,l),
(219,37,l),
(123,47,l),
(44,39,l),
(44,0,l)
);
},
{
closed = 1;
nodes = (
(219,10,l),
(220,674,l),
(123,674,l),
(123,10,l)
);
},
{
closed = 1;
nodes = (
(345,393,o),
(311,391,o),
(219,393,c),
(219,418,o),
(219,615,o),
(220,653,c),
(220,653,o),
(221,653,o),
(221,653,c),
(222,653,o),
(223,653,o),
(223,653,c),
(224,653,o),
(224,653,o),
(225,653,c),
(271,653,o),
(324,652,o),
(339,652,cs),
(467,652,o),
(473,550,o),
(473,544,cs),
(480,446,o),
(413,393,o),
(352,393,cs)
);
},
{
closed = 1;
nodes = (
(220,663,l),
(220,700,l)
);
},
{
closed = 1;
nodes = (
(44,661,l),
(123,653,l),
(220,663,l),
(220,700,l),
(44,700,l)
);
},
{
closed = 1;
nodes = (
(496,344,o),
(503,229,o),
(503,207,c),
(503,181,o),
(502,69,o),
(374,54,cs),
(357,52,o),
(314,46,o),
(226,46,c),
(225,46,o),
(225,46,o),
(224,46,c),
(223,46,o),
(222,46,o),
(221,46,c),
(220,46,o),
(220,46,o),
(219,46,c),
(219,344,l),
(351,344,l)
);
}
);
width = 638;
},
{
layerId = "DEC8ED1F-2163-436F-ADFD-2EB8129389B9";
shapes = (
{
closed = 1;
nodes = (
(623,0,o),
(680,293,o),
(489,367,cs),
(489,367,o),
(457,367,o),
(442,367,c),
(442,370,o),
(442,390,o),
(442,390,cs),
(459,390,o),
(489,391,o),
(489,391,cs),
(616,458,o),
(616,700,o),
(360,700,cs),
(327,700,o),
(245,700,o),
(220,700,c),
(219,693,o),
(219,372,o),
(219,0,c),
(312,0,o),
(411,0,o),
(374,0,cs)
);
},
{
closed = 1;
nodes = (
(219,0,l),
(219,37,l),
(123,47,l),
(44,39,l),
(44,0,l)
);
},
{
closed = 1;
nodes = (
(219,10,l),
(220,674,l),
(123,674,l),
(123,10,l)
);
},
{
closed = 1;
nodes = (
(345,393,o),
(311,391,o),
(219,393,c),
(219,418,o),
(219,615,o),
(220,653,c),
(220,655,o),
(220,650,o),
(220,653,c),
(221,653,o),
(244,653,o),
(245,653,c),
(245,651,o),
(245,657,o),
(245,653,c),
(287,653,o),
(326,652,o),
(339,652,cs),
(467,652,o),
(473,550,o),
(473,544,cs),
(480,446,o),
(413,393,o),
(352,393,cs)
);
},
{
closed = 1;
nodes = (
(220,663,l),
(220,700,l)
);
},
{
closed = 1;
nodes = (
(44,661,l),
(123,653,l),
(220,663,l),
(220,700,l),
(44,700,l)
);
},
{
closed = 1;
nodes = (
(496,344,o),
(503,229,o),
(503,207,c),
(503,181,o),
(502,69,o),
(374,54,cs),
(357,52,o),
(329,46,o),
(244,46,c),
(244,43,o),
(244,52,o),
(244,46,c),
(242,46,o),
(218,46,o),
(219,46,c),
(219,48,o),
(219,40,o),
(219,46,c),
(219,344,l),
(351,344,l)
);
}
);
width = 638;
}
);
unicode = 66;
},
{
glyphname = C;
lastChange = "2023-05-12 04:15:57 +0000";
layers = (
{
background = {
shapes = (
{
closed = 1;
nodes = (
(569,-4,o),
(720,154,o),
(720,348,cs),
(720,542,o),
(569,700,o),
(378,700,cs),
(188,700,o),
(36,542,o),
(36,348,cs),
(36,154,o),
(188,-4,o),
(378,-4,cs)
);
},
{
closed = 1;
nodes = (
(560,104,o),
(469,56,c),
(244,36,o),
(151,199,o),
(147,377,cs),
(144,500,o),
(213,621,o),
(323,651,c),
(496,651,o),
(616,500,o),
(608,309,c),
(603,188,o)
);
}
);
};
layerId = m01;
shapes = (
{
closed = 1;
nodes = (
(595,154,l),
(523,85,o),
(478,55,o),
(389,55,cs),
(251,55,o),
(144,183,o),
(144,367,cs),
(144,544,o),
(260,732,o),
(485,610,c),
(556,468,l),
(595,468,l),
(595,631,l),
(526,679,o),
(444,700,o),
(346,700,cs),
(139,700,o),
(36,525,o),
(36,341,cs),
(36,165,o),
(151,-4,o),
(344,-3,cs),
(449,-2,o),
(533,31,o),
(619,117,c)
);
}
);
width = 636;
},
{
background = {
shapes = (
{
closed = 1;
nodes = (
(569,-4,o),
(720,154,o),
(720,348,cs),
(720,542,o),
(569,700,o),
(378,700,cs),
(188,700,o),
(36,542,o),
(36,348,cs),
(36,154,o),
(188,-4,o),
(378,-4,cs)
);
},
{
closed = 1;
nodes = (
(560,104,o),
(469,56,c),
(244,36,o),
(151,199,o),
(147,377,cs),
(144,500,o),
(213,621,o),
(323,651,c),
(496,651,o),
(616,500,o),
(608,309,c),
(603,188,o)
);
}
);
};
layerId = "DEC8ED1F-2163-436F-ADFD-2EB8129389B9";
shapes = (
{
closed = 1;
nodes = (
(595,154,l),
(523,85,o),
(478,55,o),
(389,55,cs),
(251,55,o),
(144,183,o),
(144,367,cs),
(144,544,o),
(260,732,o),
(485,610,c),
(556,468,l),
(595,468,l),
(595,631,l),
(526,679,o),
(444,700,o),
(346,700,cs),
(139,700,o),
(36,525,o),
(36,341,cs),
(36,165,o),
(151,-4,o),
(344,-3,cs),
(449,-2,o),
(533,31,o),
(619,117,c)
);
}
);
width = 636;
}
);
unicode = 67;
},
{
glyphname = D;
lastChange = "2023-05-18 23:45:41 +0000";
layers = (
{
layerId = m01;
shapes = (
{
closed = 1;
nodes = (
(622,0,o),
(692,212,o),
(701,317,cs),
(710,427,o),
(686,700,o),
(360,700,cs),
(327,700,o),
(237,700,o),
(220,700,cs),
(44,700,l),
(44,661,l),
(123,653,l),
(123,47,l),
(44,39,l),
(44,0,l),
(219,0,l),
(395,4,l)
);
},
{
closed = 1;
nodes = (
(219,49,l),
(219,341,l),
(220,652,l),
(225,652,o),
(351,650,o),
(372,647,cs),
(543,630,o),
(600,474,o),
(591,313,cs),
(584,189,o),
(547,53,o),
(335,47,cs),
(357,48,o),
(311,47,o),
(220,47,c),
(219,47,l)
);
},
{
closed = 0;
nodes = (
(221,47,l)
);
}
);
width = 738;
},
{
layerId = "DEC8ED1F-2163-436F-ADFD-2EB8129389B9";
shapes = (
{
closed = 1;
nodes = (
(622,0,o),
(692,212,o),
(701,317,cs),
(710,427,o),
(686,700,o),
(360,700,cs),
(327,700,o),
(237,700,o),
(220,700,cs),
(44,700,l),
(44,661,l),
(123,653,l),
(123,47,l),
(44,39,l),
(44,0,l),
(219,0,l),
(395,4,l)
);
},
{
closed = 1;
nodes = (
(219,49,l),
(219,341,l),
(220,652,l),
(225,652,o),
(351,650,o),
(372,647,cs),
(543,630,o),
(600,474,o),
(591,313,cs),
(584,189,o),
(547,53,o),
(335,47,cs),
(357,48,o),
(311,47,o),
(220,47,c),
(219,47,l)
);
},
{
closed = 0;
nodes = (
(221,47,l)
);
}
);
width = 738;
}
);
unicode = 68;
},
{
glyphname = E;
lastChange = "2023-05-12 04:15:57 +0000";
layers = (
{
background = {
shapes = (
{
closed = 1;
nodes = (
(605,353,l),
(557,314,o),
(525,302,o),
(489,290,c),
(362,272,o),
(302,413,o),
(302,511,cs),
(302,590,o),
(340,685,o),
(496,700,c),
(562,552,l),
(605,552,l),
(598,692,l),
(560,716,o),
(496,739,o),
(443,739,cs),
(315,739,o),
(206,634,o),
(206,487,cs),
(206,348,o),
(294,235,o),
(425,235,cs),
(505,235,o),
(571,269,o),
(626,330,c)
);
}
);
};
layerId = m01;
shapes = (
{
closed = 1;
nodes = (
(219,10,l),
(220,687,l),
(123,687,l),
(123,10,l)
);
},
{
closed = 1;
nodes = (
(572,0,l),
(602,158,l),
(555,158,l),
(501,61,l),
(220,58,l),
(123,55,l),
(44,39,l),
(44,0,l)
);
},
{
closed = 1;
nodes = (
(44,661,l),
(123,645,l),
(220,642,l),
(484,639,l),
(518,543,l),
(557,543,l),
(557,700,l),
(44,700,l)
);
},
{
closed = 1;
nodes = (
(213,341,l),
(425,340,l),
(425,396,l),
(213,394,l)
);
},
{
closed = 1;
nodes = (
(473,447,l),
(434,447,l),
(418,387,l),
(418,354,l),
(432,291,l),
(473,291,l)
);
}
);
width = 610;
},
{
background = {
shapes = (
{
closed = 1;
nodes = (
(605,353,l),
(557,314,o),
(525,302,o),
(489,290,c),
(362,272,o),
(302,413,o),
(302,511,cs),
(302,590,o),
(340,685,o),
(496,700,c),
(562,552,l),
(605,552,l),
(598,692,l),
(560,716,o),
(496,739,o),
(443,739,cs),
(315,739,o),
(206,634,o),
(206,487,cs),
(206,348,o),
(294,235,o),
(425,235,cs),
(505,235,o),
(571,269,o),
(626,330,c)
);
}
);
};
layerId = "DEC8ED1F-2163-436F-ADFD-2EB8129389B9";
shapes = (
{
closed = 1;
nodes = (
(219,10,l),
(220,687,l),
(123,687,l),
(123,10,l)
);
},
{
closed = 1;
nodes = (
(572,0,l),
(602,158,l),
(555,158,l),
(501,61,l),
(220,58,l),
(123,55,l),
(44,39,l),
(44,0,l)
);
},
{
closed = 1;
nodes = (
(44,661,l),
(123,645,l),
(220,642,l),
(484,639,l),
(518,543,l),
(557,543,l),
(557,700,l),
(44,700,l)
);
},
{
closed = 1;
nodes = (
(213,341,l),
(425,340,l),
(425,396,l),
(213,394,l)
);
},
{
closed = 1;
nodes = (
(473,447,l),
(434,447,l),
(418,387,l),
(418,354,l),
(432,291,l),
(473,291,l)
);
}
);
width = 610;
}
);
unicode = 69;
},
{
glyphname = F;
lastChange = "2023-05-12 04:15:57 +0000";
layers = (
{
background = {
shapes = (
{
closed = 1;
nodes = (
(219,10,l),
(220,687,l),
(123,687,l),
(123,10,l)
);
},
{
closed = 1;
nodes = (
(572,0,l),
(587,128,l),
(540,128,l),
(501,51,l),
(220,48,l),
(123,45,l),
(44,31,l),
(44,0,l)
);
},
{
closed = 1;
nodes = (
(44,669,l),
(123,655,l),
(220,652,l),
(484,649,l),
(518,572,l),
(557,572,l),
(557,700,l),
(44,700,l)
);
},
{
closed = 1;
nodes = (
(213,350,l),
(425,349,l),
(425,396,l),
(213,394,l)
);
},
{
closed = 1;
nodes = (
(463,452,l),
(434,452,l),
(418,392,l),
(418,369,l),
(432,300,l),
(463,300,l)
);
}
);
};
layerId = m01;
shapes = (
{
closed = 1;
nodes = (
(219,10,l),
(220,687,l),
(123,687,l),
(123,10,l)
);
},
{
closed = 1;
nodes = (
(171,6,l),
(298,0,l),
(298,39,l),
(220,55,l),
(123,55,l),
(44,39,l),
(44,0,l)
);
},
{
closed = 1;
nodes = (
(44,661,l),
(123,645,l),
(220,642,l),
(481,642,l),
(518,543,l),
(557,543,l),
(555,700,l),
(171,700,l),
(44,700,l)
);
},
{
closed = 1;
nodes = (
(213,338,l),
(421,339,l),
(421,394,l),
(213,394,l)
);
},
{
closed = 1;
nodes = (
(473,444,l),
(434,444,l),
(418,384,l),
(418,350,l),
(432,290,l),
(473,290,l)
);
}
);
width = 570;
},
{
background = {
shapes = (
{
closed = 1;
nodes = (
(219,10,l),
(220,687,l),
(123,687,l),
(123,10,l)
);
},
{
closed = 1;
nodes = (
(572,0,l),
(587,128,l),
(540,128,l),
(501,51,l),
(220,48,l),
(123,45,l),
(44,31,l),
(44,0,l)
);
},
{
closed = 1;
nodes = (
(44,669,l),
(123,655,l),
(220,652,l),
(484,649,l),
(518,572,l),
(557,572,l),
(557,700,l),
(44,700,l)
);
},
{
closed = 1;
nodes = (
(213,350,l),
(425,349,l),
(425,396,l),
(213,394,l)
);
},
{
closed = 1;
nodes = (
(463,452,l),
(434,452,l),
(418,392,l),
(418,369,l),
(432,300,l),
(463,300,l)
);
}
);
};
layerId = "DEC8ED1F-2163-436F-ADFD-2EB8129389B9";
shapes = (
{
closed = 1;
nodes = (
(219,10,l),
(220,687,l),
(123,687,l),
(123,10,l)
);
},
{
closed = 1;
nodes = (
(171,6,l),
(298,0,l),
(298,39,l),
(220,55,l),
(123,55,l),
(44,39,l),
(44,0,l)
);
},
{
closed = 1;
nodes = (
(44,661,l),
(123,645,l),
(220,642,l),
(481,642,l),
(518,543,l),
(557,543,l),
(555,700,l),
(171,700,l),
(44,700,l)
);
},
{
closed = 1;
nodes = (
(213,338,l),
(421,339,l),
(421,394,l),
(213,394,l)
);
},
{
closed = 1;
nodes = (
(473,444,l),
(434,444,l),
(418,384,l),
(418,350,l),
(432,290,l),
(473,290,l)
);
}
);
width = 570;
}
);
unicode = 70;
},
{
glyphname = G;
lastChange = "2023-05-12 04:15:57 +0000";
layers = (
{
background = {
shapes = (
{
closed = 1;
nodes = (
(599,154,l),
(527,90,o),
(481,62,o),
(393,55,cs),
(255,44,o),
(148,183,o),
(148,367,cs),
(148,544,o),
(271,724,o),
(481,610,c),
(552,468,l),
(599,468,l),
(599,631,l),
(530,679,o),
(448,700,o),
(350,700,cs),
(143,700,o),
(40,525,o),
(40,341,cs),
(40,165,o),
(155,-4,o),
(348,-3,cs),
(453,-2,o),
(537,31,o),
(623,117,c)
);
}
);
};
layerId = m01;
shapes = (
{
closed = 1;
nodes = (
(620,82,o),
(620,117,o),
(620,133,c),
(582,100,o),
(523,73,o),
(470,59,cs),
(333,24,o),
(148,123,o),
(148,362,cs),
(148,535,o),
(270,730,o),
(496,612,c),
(558,472,l),
(597,472,l),
(597,643,l),
(548,678,o),
(484,700,o),
(386,700,cs),
(143,700,o),
(40,523,o),
(40,336,cs),
(40,101,o),
(225,-25,o),
(420,-5,cs),
(477,1,o),
(561,29,o),
(620,72,c)
);
},
{
closed = 1;
nodes = (
(542,79,l),
(620,79,l),
(621,287,l),
(542,287,l)
);
},
{
closed = 1;
nodes = (
(484,335,l),
(484,296,l),
(544,280,l),
(620,280,l),
(683,294,l),
(683,335,l)
);
}
);
width = 704;
},
{
background = {
shapes = (
{
closed = 1;
nodes = (
(599,154,l),
(527,90,o),
(481,62,o),
(393,55,cs),
(255,44,o),
(148,183,o),
(148,367,cs),
(148,544,o),
(271,724,o),
(481,610,c),
(552,468,l),
(599,468,l),
(599,631,l),
(530,679,o),
(448,700,o),
(350,700,cs),
(143,700,o),
(40,525,o),
(40,341,cs),
(40,165,o),
(155,-4,o),
(348,-3,cs),
(453,-2,o),
(537,31,o),
(623,117,c)
);
}
);
};
layerId = "DEC8ED1F-2163-436F-ADFD-2EB8129389B9";
shapes = (
{
closed = 1;
nodes = (
(620,82,o),
(620,117,o),
(620,133,c),
(582,100,o),
(523,73,o),
(470,59,cs),
(333,24,o),
(148,123,o),
(148,362,cs),
(148,535,o),
(270,730,o),
(496,612,c),
(558,472,l),
(597,472,l),
(597,643,l),
(548,678,o),
(484,700,o),
(386,700,cs),
(143,700,o),
(40,523,o),
(40,336,cs),
(40,101,o),
(225,-25,o),
(420,-5,cs),
(477,1,o),
(561,29,o),
(620,72,c)
);
},
{
closed = 1;
nodes = (
(542,79,l),
(620,79,l),
(621,287,l),
(542,287,l)
);
},
{
closed = 1;
nodes = (
(484,335,l),
(484,296,l),
(544,280,l),
(620,280,l),
(683,294,l),
(683,335,l)
);
}
);
width = 704;
}
);
unicode = 71;
},
{
glyphname = H;
lastChange = "2023-05-12 04:15:57 +0000";
layers = (
{
layerId = m01;
shapes = (
{
closed = 1;
nodes = (
(219,10,l),
(220,687,l),
(123,687,l),
(123,10,l)
);
},
{
closed = 1;
nodes = (
(171,6,l),
(290,0,l),
(290,39,l),
(220,55,l),
(123,55,l),
(44,39,l),
(44,0,l)
);
},
{
closed = 1;
nodes = (
(44,661,l),
(123,645,l),
(220,645,l),
(290,661,l),
(290,700,l),
(171,694,l),
(44,700,l)
);
},
{
closed = 1;
nodes = (
(642,14,l),
(643,691,l),
(546,691,l),
(546,14,l)
);
},
{
closed = 1;
nodes = (
(721,39,l),
(642,55,l),
(545,55,l),
(475,39,l),
(475,0,l),
(594,6,l),
(721,0,l)
);
},
{
closed = 1;
nodes = (
(595,694,l),
(476,700,l),
(476,661,l),
(546,645,l),
(643,645,l),
(722,661,l),
(722,700,l)
);
},
{
closed = 1;
nodes = (
(213,339,l),
(546,340,l),
(546,394,l),
(213,394,l)
);
}
);
width = 766;
},
{
layerId = "DEC8ED1F-2163-436F-ADFD-2EB8129389B9";
shapes = (
{
closed = 1;
nodes = (
(219,10,l),
(220,687,l),
(123,687,l),
(123,10,l)
);
},
{
closed = 1;
nodes = (
(171,6,l),
(290,0,l),
(290,39,l),
(220,55,l),
(123,55,l),
(44,39,l),
(44,0,l)
);
},
{
closed = 1;
nodes = (
(44,661,l),
(123,645,l),
(220,645,l),
(290,661,l),
(290,700,l),
(171,694,l),
(44,700,l)
);
},
{
closed = 1;
nodes = (
(642,14,l),
(643,691,l),
(546,691,l),
(546,14,l)
);
},
{
closed = 1;
nodes = (
(721,39,l),
(642,55,l),
(545,55,l),
(475,39,l),
(475,0,l),
(594,6,l),
(721,0,l)
);
},
{
closed = 1;
nodes = (
(595,694,l),
(476,700,l),
(476,661,l),
(546,645,l),
(643,645,l),
(722,661,l),
(722,700,l)
);
},
{
closed = 1;
nodes = (
(213,339,l),
(546,340,l),
(546,394,l),
(213,394,l)
);
}
);
width = 766;
}
);
unicode = 72;
},
{
glyphname = I;
lastChange = "2023-05-12 04:15:57 +0000";
layers = (
{
layerId = m01;
shapes = (
{
closed = 1;
nodes = (
(229,10,l),
(230,687,l),
(133,687,l),
(133,10,l)
);
},
{
closed = 1;
nodes = (
(181,6,l),
(310,0,l),
(310,39,l),
(230,55,l),
(133,55,l),
(44,39,l),
(44,0,l)
);
},
{
closed = 1;
nodes = (
(44,661,l),
(133,645,l),
(230,645,l),
(310,661,l),
(310,700,l),
(181,694,l),
(44,700,l)
);
}
);
width = 354;
},
{
layerId = "DEC8ED1F-2163-436F-ADFD-2EB8129389B9";
shapes = (
{
closed = 1;
nodes = (
(229,10,l),
(230,687,l),
(133,687,l),
(133,10,l)
);
},
{
closed = 1;
nodes = (
(181,6,l),
(310,0,l),
(310,39,l),
(230,55,l),
(133,55,l),
(44,39,l),
(44,0,l)
);
},
{
closed = 1;
nodes = (
(44,661,l),
(133,645,l),
(230,645,l),
(310,661,l),
(310,700,l),
(181,694,l),
(44,700,l)
);
}
);
width = 354;
}
);
unicode = 73;
},
{
glyphname = J;
lastChange = "2023-05-12 04:15:57 +0000";
layers = (
{
layerId = m01;
shapes = (
{
closed = 1;
nodes = (
(165,-254,o),
(250,-131,o),
(250,63,c),
(250,700,l),
(22,673,l),
(22,635,l),
(154,635,l),
(154,-12,l),
(150,-114,o),
(85,-165,o),
(-10,-138,c),
(-47,-57,l),
(-86,-57,l),
(-86,-165,l)
);
}
);
width = 380;
},
{
layerId = "DEC8ED1F-2163-436F-ADFD-2EB8129389B9";
shapes = (
{
closed = 1;
nodes = (
(165,-254,o),
(250,-131,o),
(250,63,c),
(250,700,l),
(22,673,l),
(22,635,l),
(154,635,l),
(154,-12,l),
(150,-114,o),
(85,-165,o),
(-10,-138,c),
(-47,-57,l),
(-86,-57,l),
(-86,-165,l)
);
}
);
width = 380;
}
);
unicode = 74;
},
{
glyphname = K;
lastChange = "2023-05-12 04:15:57 +0000";
layers = (
{
layerId = m01;
shapes = (
{
closed = 1;
nodes = (
(523,695,l),
(270,394,l),
(220,394,l),
(221,693,l),
(123,693,l),
(123,10,l),
(219,10,l),
(219,349,l),
(311,349,l),
(596,695,l)
);
},
{
closed = 1;
nodes = (
(165,6,l),
(290,0,l),
(290,39,l),
(220,55,l),
(123,55,l),
(44,39,l),
(44,0,l)
);
},
{
closed = 1;
nodes = (
(583,6,l),
(695,0,l),
(695,39,l),
(607,55,l),
(513,55,l),
(438,39,l),
(438,0,l)
);
},
{
closed = 1;
nodes = (
(269,394,l),
(272,357,l),
(517,10,l),
(641,10,l),
(372,394,l)
);
},
{
closed = 1;
nodes = (
(424,661,l),
(502,639,l),
(549,639,l),
(629,661,l),
(629,700,l),
(534,695,l),
(424,700,l)
);
},
{
closed = 1;
nodes = (
(45,661,l),
(123,645,l),
(221,645,l),
(291,661,l),
(291,700,l),
(172,694,l),
(45,700,l)
);
}
);
width = 675;
},
{
layerId = "DEC8ED1F-2163-436F-ADFD-2EB8129389B9";
shapes = (
{
closed = 1;
nodes = (
(523,695,l),
(270,394,l),
(220,394,l),
(221,693,l),
(123,693,l),
(123,10,l),
(219,10,l),
(219,349,l),
(311,349,l),
(596,695,l)
);
},
{
closed = 1;
nodes = (
(165,6,l),
(290,0,l),
(290,39,l),
(220,55,l),
(123,55,l),
(44,39,l),
(44,0,l)
);
},
{
closed = 1;
nodes = (
(583,6,l),
(695,0,l),
(695,39,l),
(607,55,l),
(513,55,l),
(438,39,l),
(438,0,l)
);
},
{
closed = 1;
nodes = (
(269,394,l),
(272,357,l),
(517,10,l),
(641,10,l),
(372,394,l)
);
},
{
closed = 1;
nodes = (
(424,661,l),
(502,639,l),
(549,639,l),
(629,661,l),
(629,700,l),
(534,695,l),
(424,700,l)
);
},
{
closed = 1;
nodes = (
(45,661,l),
(123,645,l),
(221,645,l),
(291,661,l),
(291,700,l),
(172,694,l),
(45,700,l)
);
}
);
width = 675;
}
);
unicode = 75;
},
{
glyphname = L;
lastChange = "2023-05-12 04:15:57 +0000";
layers = (
{
layerId = m01;
shapes = (
{
closed = 1;
nodes = (
(220,10,l),
(220,687,l),
(123,687,l),
(123,10,l)
);
},
{
closed = 1;
nodes = (
(516,0,l),
(531,128,l),
(484,128,l),
(445,61,l),
(220,58,l),
(123,55,l),
(44,39,l),
(44,0,l)
);
},
{
closed = 1;
nodes = (
(45,661,l),
(123,645,l),
(221,645,l),
(291,661,l),
(291,700,l),
(172,694,l),
(45,700,l)
);
}
);
width = 537;
},
{
layerId = "DEC8ED1F-2163-436F-ADFD-2EB8129389B9";
shapes = (
{
closed = 1;
nodes = (
(220,10,l),
(220,687,l),
(123,687,l),
(123,10,l)
);
},
{
closed = 1;
nodes = (
(516,0,l),
(531,128,l),
(484,128,l),
(445,61,l),
(220,58,l),
(123,55,l),
(44,39,l),
(44,0,l)
);
},
{
closed = 1;
nodes = (
(45,661,l),
(123,645,l),
(221,645,l),
(291,661,l),
(291,700,l),
(172,694,l),
(45,700,l)
);
}
);
width = 537;
}
);
unicode = 76;
},
{
glyphname = M;
lastChange = "2023-05-12 17:28:43 +0000";
layers = (
{
layerId = m01;
shapes = (
{
closed = 1;
nodes = (
(161,6,l),
(267,0,l),
(267,39,l),
(196,55,l),
(197,629,l),
(474,5,l),
(552,5,l),
(553,7,l),
(820,599,l),
(820,55,l),
(819,55,l),
(749,39,l),
(749,0,l),
(868,6,l),
(996,0,l),
(996,39,l),
(917,55,l),
(918,645,l),
(997,661,l),
(997,700,l),
(800,700,l),
(537,114,l),
(534,120,l),
(530,128,l),
(525,139,l),
(292,667,l),
(286,679,l),
(283,687,l),
(277,700,l),
(58,700,l),
(58,661,l),
(137,645,l),
(138,645,l),
(138,55,l),
(59,39,l),
(59,0,l)
);
}
);
width = 1023;
},
{
layerId = "DEC8ED1F-2163-436F-ADFD-2EB8129389B9";
shapes = (
{
closed = 1;
nodes = (
(161,6,l),
(267,0,l),
(267,39,l),
(196,55,l),
(197,629,l),
(474,5,l),
(552,5,l),
(553,7,l),
(820,599,l),
(820,55,l),
(819,55,l),
(749,39,l),
(749,0,l),
(868,6,l),
(996,0,l),
(996,39,l),
(917,55,l),
(918,645,l),
(997,661,l),
(997,700,l),
(800,700,l),
(537,114,l),
(525,88,l),
(504,99,l),
(524,140,l),
(292,667,l),
(286,679,l),
(283,687,l),
(277,700,l),
(58,700,l),
(58,661,l),
(137,645,l),
(138,645,l),
(138,55,l),
(59,39,l),
(59,0,l)
);
}
);
width = 1023;
}
);
unicode = 77;
},
{
glyphname = N;
lastChange = "2023-05-12 04:15:57 +0000";
layers = (
{
layerId = m01;
shapes = (
{
closed = 1;
nodes = (
(147,6,l),
(253,0,l),
(253,39,l),
(183,55,l),
(182,55,l),
(183,641,l),
(570,0,l),
(661,0,l),
(662,645,l),
(740,661,l),
(740,700,l),
(633,694,l),
(531,700,l),
(531,661,l),
(601,645,l),
(602,645,l),
(602,142,l),
(594,155,l),
(586,167,l),
(579,178,l),
(264,700,l),
(44,700,l),
(44,661,l),
(123,645,l),
(123,55,l),
(44,39,l),
(44,0,l)
);
}
);
width = 782;
},
{
layerId = "DEC8ED1F-2163-436F-ADFD-2EB8129389B9";
shapes = (
{
closed = 1;
nodes = (
(147,6,l),
(253,0,l),
(253,39,l),
(183,55,l),
(182,55,l),
(183,641,l),
(570,0,l),
(661,0,l),
(662,645,l),
(740,661,l),
(740,700,l),
(633,694,l),
(531,700,l),
(531,661,l),
(601,645,l),
(602,645,l),
(602,142,l),
(602,121,l),
(579,121,l),
(579,178,l),
(264,700,l),
(44,700,l),
(44,661,l),
(123,645,l),
(123,55,l),
(44,39,l),
(44,0,l)
);
}
);
width = 782;
}
);
unicode = 78;
},
{
glyphname = O;
lastChange = "2023-05-12 04:15:57 +0000";
layers = (
{
layerId = m01;
shapes = (
{
closed = 1;
nodes = (
(569,-4,o),
(720,154,o),
(720,348,cs),
(720,542,o),
(569,700,o),
(378,700,cs),
(188,700,o),
(36,542,o),
(36,348,cs),
(36,154,o),
(188,-4,o),
(378,-4,cs)
);
},
{
closed = 1;
nodes = (
(560,104,o),
(469,56,c),
(244,36,o),
(151,199,o),
(147,377,cs),
(144,500,o),
(213,621,o),
(323,651,c),
(496,651,o),
(616,500,o),
(608,309,c),
(603,188,o)
);
}
);
width = 756;
},
{
layerId = "DEC8ED1F-2163-436F-ADFD-2EB8129389B9";
shapes = (
{
closed = 1;
nodes = (
(569,-4,o),
(720,154,o),
(720,348,cs),
(720,542,o),
(569,700,o),
(378,700,cs),
(188,700,o),
(36,542,o),
(36,348,cs),
(36,154,o),
(188,-4,o),
(378,-4,cs)
);
},
{
closed = 1;
nodes = (
(560,104,o),
(469,56,c),
(244,36,o),
(151,199,o),
(147,377,cs),
(144,500,o),
(213,621,o),
(323,651,c),
(496,651,o),
(616,500,o),
(608,309,c),
(603,188,o)
);
}
);
width = 756;
}
);
unicode = 79;
},
{
glyphname = P;
lastChange = "2023-05-12 04:15:57 +0000";
layers = (
{
layerId = m01;
shapes = (
{
closed = 1;
nodes = (
(207,55,l),
(291,39,l),
(291,0,l),
(160,6,l),
(32,0,l),
(32,39,l),
(111,55,l),
(111,652,l),
(32,661,l),
(32,700,l),
(208,700,l),
(363,700,o),
(583,719,o),
(551,479,cs),
(528,309,o),
(306,328,o),
(207,328,c)
);
},
{
closed = 1;
nodes = (
(482,472,o),
(463,599,o),
(382,634,cs),
(339,653,o),
(302,655,o),
(208,655,c),
(208,368,l),
(302,368,o),
(376,375,o),
(410,406,cs)
);
}
);
width = 564;
},
{
layerId = "DEC8ED1F-2163-436F-ADFD-2EB8129389B9";
shapes = (
{
closed = 1;
nodes = (
(207,55,l),
(291,39,l),
(291,0,l),
(160,6,l),
(32,0,l),
(32,39,l),
(111,55,l),
(111,652,l),
(32,661,l),
(32,700,l),
(208,700,l),
(363,700,o),
(583,719,o),
(551,479,cs),
(528,309,o),
(306,328,o),
(207,328,c)
);
},
{
closed = 1;
nodes = (
(482,472,o),
(463,599,o),
(382,634,cs),
(339,653,o),
(302,655,o),
(208,655,c),
(208,368,l),
(302,368,o),
(376,375,o),
(410,406,cs)
);
}
);
width = 564;
}
);
unicode = 80;
},
{
glyphname = Q;
lastChange = "2023-05-12 17:31:56 +0000";
layers = (
{
layerId = m01;
shapes = (
{
closed = 1;
nodes = (
(698,-127,l),
(698,-33,l),
(353,-32,l),
(461,6,l),
(611,44,o),
(720,183,o),
(720,348,cs),
(720,542,o),
(569,700,o),
(378,700,cs),
(188,700,o),
(36,542,o),
(36,348,cs),
(36,177,o),
(155,33,o),
(314,3,cs),
(317,2,o),
(320,2,o),
(322,1,c),
(324,1,o),
(326,0,o),
(328,0,c),
(331,0,o),
(333,0,o),
(336,-1,c),
(264,-32,l),
(264,-63,l)
);
},
{
closed = 1;
nodes = (
(144,500,o),
(213,621,o),
(323,651,c),
(496,651,o),
(616,500,o),
(608,309,cs),
(603,188,o),
(564,96,o),
(469,56,c),
(244,36,o),
(151,199,o),
(147,377,cs)
);
}
);
width = 761;
},
{
associatedMasterId = m01;
layerId = "591E64FC-0B47-4F96-9D6D-0CBC636FFB1E";
name = "May 1, 23, 10:47";
shapes = (
{
closed = 1;
nodes = (
(569,-4,o),
(720,154,o),
(720,348,cs),
(720,542,o),
(569,700,o),
(378,700,cs),
(188,700,o),
(36,542,o),
(36,348,cs),
(36,154,o),
(188,-4,o),
(378,-4,cs)
);
},
{
closed = 1;
nodes = (
(719,-70,l),
(634,-118,o),
(605,-143,o),
(540,-118,cs),
(473,-92,o),
(419,-33,o),
(253,-79,c),
(254,-125,l),
(375,-112,o),
(406,-155,o),
(451,-168,cs),
(591,-209,o),
(644,-155,o),
(719,-101,c)
);
},
{
closed = 1;
nodes = (
(244,36,o),
(151,199,o),
(147,377,cs),
(144,500,o),
(213,621,o),
(323,651,c),
(496,651,o),
(616,500,o),
(608,309,c),
(603,188,o),
(564,96,o),
(469,56,c)
);
},
{
closed = 1;
nodes = (
(254,-79,l),
(269,-105,l),
(482,13,l),
(461,50,l)
);
}
);
width = 756;
},
{
layerId = "DEC8ED1F-2163-436F-ADFD-2EB8129389B9";
shapes = (
{
closed = 1;
nodes = (
(698,-127,l),
(698,-33,l),
(353,-32,l),
(461,6,l),
(611,44,o),
(720,183,o),
(720,348,cs),
(720,542,o),
(569,700,o),
(378,700,cs),
(188,700,o),
(36,542,o),
(36,348,cs),
(36,177,o),
(159,29,o),
(302,5,cs),
(308,4,o),
(344,19,o),
(348,21,c),
(353,19,o),
(361,15,o),
(365,13,c),
(361,11,o),
(346,4,o),
(336,-1,c),
(264,-32,l),
(264,-63,l)
);
},
{
closed = 1;
nodes = (
(144,500,o),
(213,621,o),
(323,651,c),
(496,651,o),
(616,500,o),
(608,309,cs),
(603,188,o),
(564,96,o),
(469,56,c),
(244,36,o),
(151,199,o),
(147,377,cs)
);
}
);
width = 761;
},
{
associatedMasterId = "DEC8ED1F-2163-436F-ADFD-2EB8129389B9";
layerId = "0CCA52C0-4F00-4723-BF91-3463F4437FEE";
name = "May 1, 23, 10:47";
shapes = (
{
closed = 1;
nodes = (
(569,-4,o),
(720,154,o),
(720,348,cs),
(720,542,o),
(569,700,o),
(378,700,cs),
(188,700,o),
(36,542,o),
(36,348,cs),
(36,154,o),
(188,-4,o),
(378,-4,cs)
);
},
{
closed = 1;
nodes = (
(719,-70,l),
(634,-118,o),
(605,-143,o),
(540,-118,cs),
(473,-92,o),
(419,-33,o),
(253,-79,c),
(254,-125,l),
(375,-112,o),
(406,-155,o),
(451,-168,cs),
(591,-209,o),
(644,-155,o),
(719,-101,c)
);
},
{
closed = 1;
nodes = (
(244,36,o),
(151,199,o),
(147,377,cs),
(144,500,o),
(213,621,o),
(323,651,c),
(496,651,o),
(616,500,o),
(608,309,c),
(603,188,o),
(564,96,o),
(469,56,c)
);
},
{
closed = 1;
nodes = (
(254,-79,l),
(269,-105,l),
(482,13,l),
(461,50,l)
);
}
);
width = 756;
}
);
unicode = 81;
},
{
glyphname = R;
lastChange = "2023-05-12 04:15:57 +0000";
layers = (
{
background = {
shapes = (
{
closed = 1;
nodes = (
(160,6,l),
(291,0,l),
(291,39,l),
(207,54,l),
(207,328,l),
(232,328,o),
(264,327,o),
(299,328,c),
(483,49,l),
(433,39,l),
(433,0,l),
(561,6,l),
(673,0,l),
(673,39,l),
(589,54,l),
(404,325,l),
(396,337,l),
(401,338,o),
(405,339,o),
(410,340,cs),
(480,357,o),
(540,395,o),
(551,479,cs),
(583,719,o),
(363,700,o),
(208,700,cs),
(32,700,l),
(32,661,l),
(111,652,l),
(111,54,l),
(32,39,l),
(32,0,l)
);
},
{
closed = 1;
nodes = (
(208,665,l),
(302,665,o),
(339,663,o),
(382,644,cs),
(463,609,o),
(482,472,o),
(410,406,cs),
(376,375,o),
(302,368,o),
(208,368,c)
);
}
);
};
layerId = m01;
shapes = (
{
closed = 1;
nodes = (
(160,6,l),
(291,0,l),
(291,39,l),
(207,54,l),
(207,328,l),
(232,328,o),
(264,327,o),
(299,328,c),
(483,49,l),
(433,39,l),
(433,0,l),
(561,6,l),
(673,0,l),
(673,39,l),
(589,54,l),
(396,337,l),
(469,351,o),
(539,387,o),
(551,479,cs),
(583,719,o),
(363,700,o),
(208,700,cs),
(32,700,l),
(32,661,l),
(111,652,l),
(111,54,l),
(32,39,l),
(32,0,l)
);
},
{
closed = 1;
nodes = (
(208,665,l),
(302,665,o),
(339,663,o),
(382,644,cs),
(463,609,o),
(482,472,o),
(410,406,cs),
(376,375,o),
(302,368,o),
(208,368,c)
);
}
);
width = 683;
},
{
layerId = "DEC8ED1F-2163-436F-ADFD-2EB8129389B9";
shapes = (
{
closed = 1;
nodes = (
(160,6,l),
(291,0,l),
(291,39,l),
(207,54,l),
(207,328,l),
(232,328,o),
(264,327,o),
(299,328,c),
(483,49,l),
(433,39,l),
(433,0,l),
(561,6,l),
(673,0,l),
(673,39,l),
(589,54,l),
(396,337,l),
(469,351,o),
(539,387,o),
(551,479,cs),
(583,719,o),
(363,700,o),
(208,700,cs),
(32,700,l),
(32,661,l),
(111,652,l),
(111,54,l),
(32,39,l),
(32,0,l)
);
},
{
closed = 1;
nodes = (
(208,665,l),
(302,665,o),
(339,663,o),
(382,644,cs),
(463,609,o),
(482,472,o),
(410,406,cs),
(376,375,o),
(302,368,o),
(208,368,c)
);
}
);
width = 683;
}
);
unicode = 82;
},
{
glyphname = S;
lastChange = "2023-05-12 04:15:57 +0000";
layers = (
{
layerId = m01;
shapes = (
{
closed = 1;
nodes = (
(458,518,l),
(497,518,l),
(497,649,l),
(358,745,o),
(196,721,o),
(128,649,cs),
(79,598,o),
(56,493,o),
(118,420,cs),
(194,331,o),
(447,294,o),
(435,176,cs),
(430,127,o),
(405,66,o),
(300,60,cs),
(229,56,o),
(157,98,o),
(104,185,c),
(90,250,l),
(36,250,l),
(36,131,l),
(136,22,o),
(190,0,o),
(272,-2,cs),
(500,-6,o),
(539,140,o),
(539,190,cs),
(539,359,o),
(346,367,o),
(223,450,cs),
(172,485,o),
(159,551,o),
(190,599,cs),
(228,658,o),
(424,672,o),
(443,553,c)
);
}
);
width = 579;
},
{
layerId = "DEC8ED1F-2163-436F-ADFD-2EB8129389B9";
shapes = (
{
closed = 1;
nodes = (
(458,518,l),
(497,518,l),
(497,649,l),
(358,745,o),
(196,721,o),
(128,649,cs),
(79,598,o),
(56,493,o),
(118,420,cs),
(194,331,o),
(447,294,o),
(435,176,cs),
(430,127,o),
(405,66,o),
(300,60,cs),
(229,56,o),
(157,98,o),
(104,185,c),
(90,250,l),
(36,250,l),
(36,131,l),
(136,22,o),
(190,0,o),
(272,-2,cs),
(500,-6,o),
(539,140,o),
(539,190,cs),
(539,359,o),
(346,367,o),
(223,450,cs),
(172,485,o),
(159,551,o),
(190,599,cs),
(228,658,o),
(424,672,o),
(443,553,c)
);
}
);
width = 579;
}
);
unicode = 83;
},
{
glyphname = T;
lastChange = "2023-05-12 04:15:57 +0000";
layers = (
{
background = {
shapes = (
{
closed = 1;
nodes = (
(448,687,l),
(351,687,l),
(352,10,l),
(448,10,l)
);
},
{
closed = 1;
nodes = (
(527,31,l),
(448,45,l),
(351,48,l),
(70,51,l),
(31,128,l),
(-16,128,l),
(-1,0,l),
(527,0,l)
);
},
{
closed = 1;
nodes = (
(14,700,l),
(14,572,l),
(53,572,l),
(87,649,l),
(351,652,l),
(448,655,l),
(527,669,l),
(527,700,l)
);
},
{
closed = 1;
nodes = (
(146,396,l),
(146,349,l),
(358,350,l),
(358,394,l)
);
},
{
closed = 1;
nodes = (
(139,300,l),
(153,363,l),
(153,387,l),
(137,447,l),
(108,447,l),
(108,300,l)
);
}
);
};
layerId = m01;
shapes = (
{
closed = 1;
nodes = (
(349,10,l),
(350,676,l),
(253,676,l),
(253,10,l)
);
},
{
closed = 1;
nodes = (
(301,6,l),
(438,0,l),
(438,39,l),
(350,53,l),
(253,53,l),
(164,39,l),
(164,0,l)
);
},
{
closed = 1;
nodes = (
(14,572,l),
(53,572,l),
(85,648,l),
(517,648,l),
(551,572,l),
(590,572,l),
(589,700,l),
(14,700,l)
);
}
);
width = 604;
},
{
background = {
shapes = (
{
closed = 1;
nodes = (
(448,687,l),
(351,687,l),
(352,10,l),
(448,10,l)
);
},
{
closed = 1;
nodes = (
(527,31,l),
(448,45,l),
(351,48,l),
(70,51,l),
(31,128,l),
(-16,128,l),
(-1,0,l),
(527,0,l)
);
},
{
closed = 1;
nodes = (
(14,700,l),
(14,572,l),
(53,572,l),
(87,649,l),
(351,652,l),
(448,655,l),
(527,669,l),
(527,700,l)
);
},
{
closed = 1;
nodes = (
(146,396,l),
(146,349,l),
(358,350,l),
(358,394,l)
);
},
{
closed = 1;
nodes = (
(139,300,l),
(153,363,l),
(153,387,l),
(137,447,l),
(108,447,l),
(108,300,l)
);
}
);
};
layerId = "DEC8ED1F-2163-436F-ADFD-2EB8129389B9";
shapes = (
{
closed = 1;
nodes = (
(349,10,l),
(350,676,l),
(253,676,l),
(253,10,l)
);
},
{
closed = 1;
nodes = (
(301,6,l),
(438,0,l),
(438,39,l),
(350,53,l),
(253,53,l),
(164,39,l),
(164,0,l)
);
},
{
closed = 1;
nodes = (
(14,572,l),
(53,572,l),
(85,648,l),
(517,648,l),
(551,572,l),
(590,572,l),
(589,700,l),
(14,700,l)
);
}
);
width = 604;
}
);
unicode = 84;
},
{
glyphname = U;
lastChange = "2023-05-12 04:15:57 +0000";
layers = (
{
background = {
shapes = (
{
closed = 1;
nodes = (
(453,458,l),
(453,160,l),
(353,73,l),
(320,58,o),
(296,58,o),
(280,64,c),
(231,85,o),
(213,131,o),
(213,176,c),
(214,458,l),
(128,458,l),
(128,132,l),
(128,69,o),
(166,12,o),
(221,-7,cs),
(252,-18,o),
(309,-22,o),
(331,-10,cs),
(354,3,o),
(428,96,o),
(452,123,c),
(451,-5,l),
(606,-15,l),
(606,41,l),
(537,29,l),
(537,458,l)
);
},
{
closed = 1;
nodes = (
(40,459,l),
(40,430,l),
(128,431,l),
(214,431,l),
(214,486,l)
);
},
{
closed = 1;
nodes = (
(363,459,l),
(363,430,l),
(451,431,l),
(537,431,l),
(537,486,l)
);
}
);
};
layerId = m01;
shapes = (
{
closed = 1;
nodes = (
(115,689,l),
(115,254,l),
(115,65,o),
(227,-3,o),
(382,-4,cs),
(524,-5,o),
(614,64,o),
(614,263,c),
(614,682,l),
(554,682,l),
(554,224,l),
(552,105,o),
(486,54,o),
(415,44,c),
(323,46,o),
(212,85,o),
(212,221,c),
(212,689,l)
);
},
{
closed = 1;
nodes = (
(36,661,l),
(115,646,l),
(211,646,l),
(283,661,l),
(283,700,l),
(160,694,l),
(36,700,l)
);
},
{
closed = 1;
nodes = (
(586,693,l),
(483,699,l),
(483,661,l),
(554,645,l),
(612,645,l),
(693,661,l),
(693,699,l)
);
}
);
width = 756;
},
{
background = {
shapes = (
{
closed = 1;
nodes = (
(453,458,l),
(453,160,l),
(353,73,l),
(320,58,o),
(296,58,o),
(280,64,c),
(231,85,o),
(213,131,o),
(213,176,c),
(214,458,l),
(128,458,l),
(128,132,l),
(128,69,o),
(166,12,o),
(221,-7,cs),
(252,-18,o),
(309,-22,o),
(331,-10,cs),
(354,3,o),
(428,96,o),
(452,123,c),
(451,-5,l),
(606,-15,l),
(606,41,l),
(537,29,l),
(537,458,l)
);
},
{
closed = 1;
nodes = (
(40,459,l),
(40,430,l),
(128,431,l),
(214,431,l),
(214,486,l)
);
},
{
closed = 1;
nodes = (
(363,459,l),
(363,430,l),
(451,431,l),
(537,431,l),
(537,486,l)
);
}
);
};
layerId = "DEC8ED1F-2163-436F-ADFD-2EB8129389B9";
shapes = (
{
closed = 1;
nodes = (
(115,689,l),
(115,254,l),
(115,65,o),
(227,-3,o),
(382,-4,cs),
(524,-5,o),
(614,64,o),
(614,263,c),
(614,682,l),
(554,682,l),
(554,224,l),
(552,105,o),
(486,54,o),
(415,44,c),
(323,46,o),
(212,85,o),
(212,221,c),
(212,689,l)
);
},
{
closed = 1;
nodes = (
(36,661,l),
(115,646,l),
(211,646,l),
(283,661,l),
(283,700,l),
(160,694,l),
(36,700,l)
);
},
{
closed = 1;
nodes = (
(586,693,l),
(483,699,l),
(483,661,l),
(554,645,l),
(612,645,l),
(693,661,l),
(693,699,l)
);
}
);
width = 756;
}
);
unicode = 85;
},
{
glyphname = V;
lastChange = "2023-05-12 17:33:02 +0000";
layers = (
{
layerId = m01;
shapes = (
{
closed = 1;
nodes = (
(357,0,ls),
(368,0,o),
(381,0,o),
(409,0,cs),
(421,0,l),
(615,648,l),
(692,661,l),
(692,700,l),
(592,694,l),
(489,700,l),
(489,661,l),
(551,648,l),
(391,112,l),
(383,86,l),
(375,106,l),
(369,121,l),
(194,649,l),
(254,661,l),
(254,700,l),
(135,694,l),
(10,700,l),
(10,661,l),
(89,647,l),
(303,0,l)
);
}
);
width = 697;
},
{
layerId = "DEC8ED1F-2163-436F-ADFD-2EB8129389B9";
shapes = (
{
closed = 1;
nodes = (
(357,0,ls),
(368,0,o),
(381,0,o),
(409,0,cs),
(421,0,l),
(615,648,l),
(692,661,l),
(692,700,l),
(592,694,l),
(489,700,l),
(489,661,l),
(551,648,l),
(391,112,l),
(373,53,l),
(350,60,l),
(369,121,l),
(194,649,l),
(254,661,l),
(254,700,l),
(135,694,l),
(10,700,l),
(10,661,l),
(89,647,l),
(303,0,l)
);
}
);
width = 697;
}
);
unicode = 86;
},
{
glyphname = W;
lastChange = "2023-05-12 17:33:14 +0000";
layers = (
{
layerId = m01;
shapes = (
{
closed = 1;
nodes = (
(359,0,ls),
(370,0,o),
(383,0,o),
(411,0,cs),
(423,0,l),
(564,472,l),
(720,0,l),
(774,0,ls),
(785,0,o),
(798,0,o),
(826,0,cs),
(838,0,l),
(1032,648,l),
(1109,661,l),
(1109,700,l),
(1009,694,l),
(906,700,l),
(906,661,l),
(968,648,l),
(799,82,l),
(793,98,l),
(789,110,l),
(786,118,l),
(611,647,l),
(688,661,l),
(688,700,l),
(549,693,l),
(417,700,l),
(417,661,l),
(506,647,l),
(531,573,l),
(384,82,l),
(379,96,l),
(375,108,l),
(372,117,l),
(196,648,l),
(256,661,l),
(256,700,l),
(137,694,l),
(10,700,l),
(10,661,l),
(91,647,l),
(305,0,l)
);
}
);
width = 1114;
},
{
layerId = "DEC8ED1F-2163-436F-ADFD-2EB8129389B9";
shapes = (
{
closed = 1;
nodes = (
(359,0,ls),
(370,0,o),
(383,0,o),
(411,0,cs),
(423,0,l),
(564,472,l),
(720,0,l),
(774,0,ls),
(785,0,o),
(798,0,o),
(826,0,cs),
(838,0,l),
(1032,648,l),
(1109,661,l),
(1109,700,l),
(1009,694,l),
(906,700,l),
(906,661,l),
(968,648,l),
(799,82,l),
(789,50,l),
(768,58,l),
(786,118,l),
(611,647,l),
(688,661,l),
(688,700,l),
(549,693,l),
(417,700,l),
(417,661,l),
(506,647,l),
(531,573,l),
(384,82,l),
(374,50,l),
(354,57,l),
(372,117,l),
(196,648,l),
(256,661,l),
(256,700,l),
(137,694,l),
(10,700,l),
(10,661,l),
(91,647,l),
(305,0,l)
);
}
);
width = 1114;
}
);
unicode = 87;
},
{
glyphname = X;
lastChange = "2023-05-12 04:15:57 +0000";
layers = (
{
layerId = m01;
shapes = (
{
closed = 1;
nodes = (
(397,346,l),
(637,688,l),
(580,688,l),
(366,379,l)
);
},
{
closed = 1;
nodes = (
(597,6,l),
(713,0,l),
(713,28,l),
(635,43,l),
(545,43,l),
(464,26,l),
(464,0,l)
);
},
{
closed = 1;
nodes = (
(177,688,l),
(54,688,l),
(545,10,l),
(670,10,l)
);
},
{
closed = 1;
nodes = (
(509,679,l),
(560,657,l),
(614,657,l),
(692,677,l),
(692,700,l),
(585,694,l),
(509,700,l)
);
},
{
closed = 1;
nodes = (
(210,26,l),
(133,43,l),
(71,43,l),
(-10,28,l),
(-10,0,l),
(91,6,l),
(210,0,l)
);
},
{
closed = 1;
nodes = (
(130,694,l),
(14,700,l),
(14,677,l),
(92,657,l),
(164,657,l),
(262,679,l),
(262,700,l)
);
},
{
closed = 1;
nodes = (
(313,395,l),
(46,10,l),
(112,10,l),
(345,349,l)
);
}
);
width = 703;
},
{
layerId = "DEC8ED1F-2163-436F-ADFD-2EB8129389B9";
shapes = (
{
closed = 1;
nodes = (
(397,346,l),
(637,688,l),
(580,688,l),
(366,379,l)
);
},
{
closed = 1;
nodes = (
(597,6,l),
(713,0,l),
(713,28,l),
(635,43,l),
(545,43,l),
(464,26,l),
(464,0,l)
);
},
{
closed = 1;
nodes = (
(177,688,l),
(54,688,l),
(545,10,l),
(670,10,l)
);
},
{
closed = 1;
nodes = (
(509,679,l),
(560,657,l),
(614,657,l),
(692,677,l),
(692,700,l),
(585,694,l),
(509,700,l)
);
},
{
closed = 1;
nodes = (
(210,26,l),
(133,43,l),
(71,43,l),
(-10,28,l),
(-10,0,l),
(91,6,l),
(210,0,l)
);
},
{
closed = 1;
nodes = (
(130,694,l),
(14,700,l),
(14,677,l),
(92,657,l),
(164,657,l),
(262,679,l),
(262,700,l)
);
},
{
closed = 1;
nodes = (
(313,395,l),
(46,10,l),
(112,10,l),
(345,349,l)
);
}
);
width = 703;
}
);
unicode = 88;
},
{
glyphname = Y;
lastChange = "2023-05-19 12:55:32 +0000";
layers = (
{
layerId = m01;
shapes = (
{
closed = 1;
nodes = (
(300,55,l),
(211,39,l),
(211,0,l),
(344,6,l),
(477,0,l),
(477,39,l),
(397,55,l),
(396,55,l),
(396,290,l),
(396,293,l),
(396,294,l),
(599,647,l),
(600,647,l),
(678,661,l),
(678,700,l),
(571,694,l),
(495,700,l),
(495,661,l),
(543,648,l),
(370,337,l),
(368,341,l),
(366,345,l),
(363,350,l),
(183,651,l),
(250,661,l),
(250,700,l),
(118,694,l),
(10,700,l),
(10,661,l),
(91,647,l),
(300,293,l)
);
}
);
width = 683;
},
{
layerId = "DEC8ED1F-2163-436F-ADFD-2EB8129389B9";
shapes = (
{
closed = 1;
nodes = (
(299,55,l),
(211,39,l),
(211,0,l),
(344,6,l),
(477,0,l),
(477,39,l),
(397,55,l),
(396,55,l),
(396,292,l),
(396,293,l),
(396,294,l),
(599,647,l),
(600,647,l),
(678,661,l),
(678,700,l),
(571,694,l),
(495,700,l),
(495,661,l),
(543,648,l),
(368,339,l),
(348,306,l),
(328,318,l),
(355,362,l),
(183,651,l),
(250,661,l),
(250,700,l),
(118,694,l),
(10,700,l),
(10,661,l),
(91,647,l),
(300,293,l)
);
}
);
width = 683;
}
);
unicode = 89;
},
{
glyphname = Z;
lastChange = "2023-05-12 04:15:57 +0000";
layers = (
{
background = {
shapes = (
{
closed = 1;
nodes = (
(190,13,l),
(287,13,l),
(286,690,l),
(190,690,l)
);
},
{
closed = 1;
nodes = (
(111,669,l),
(190,655,l),
(287,655,l),
(357,671,l),
(357,700,l),
(238,694,l),
(111,700,l)
);
},
{
closed = 1;
nodes = (
(238,0,l),
(622,0,l),
(624,128,l),
(585,128,l),
(548,48,l),
(287,48,l),
(190,45,l),
(111,31,l),
(111,0,l)
);
},
{
closed = 1;
nodes = (
(488,306,l),
(488,350,l),
(280,351,l),
(280,306,l)
);
},
{
closed = 1;
nodes = (
(499,399,l),
(485,339,l),
(485,316,l),
(501,256,l),
(530,256,l),
(530,399,l)
);
}
);
};
layerId = m01;
shapes = (
{
closed = 1;
nodes = (
(604,699,l),
(44,700,l),
(44,573,l),
(84,573,l),
(115,652,l),
(495,652,l),
(20,76,l),
(20,42,o),
(20,30,o),
(20,0,c),
(235,0,o),
(464,0,o),
(622,-1,c),
(624,128,l),
(585,128,l),
(549,48,l),
(127,48,l),
(602,623,l),
(604,623,o),
(604,623,o),
(604,623,c),
(604,625,l)
);
}
);
width = 644;
},
{
background = {
shapes = (
{
closed = 1;
nodes = (
(190,13,l),
(287,13,l),
(286,690,l),
(190,690,l)
);
},
{
closed = 1;
nodes = (
(111,669,l),
(190,655,l),
(287,655,l),
(357,671,l),
(357,700,l),
(238,694,l),
(111,700,l)
);
},
{
closed = 1;
nodes = (
(238,0,l),
(622,0,l),
(624,128,l),
(585,128,l),
(548,48,l),
(287,48,l),
(190,45,l),
(111,31,l),
(111,0,l)
);
},
{
closed = 1;
nodes = (
(488,306,l),
(488,350,l),
(280,351,l),
(280,306,l)
);
},
{
closed = 1;
nodes = (
(499,399,l),
(485,339,l),
(485,316,l),
(501,256,l),
(530,256,l),
(530,399,l)
);
}
);
};
layerId = "DEC8ED1F-2163-436F-ADFD-2EB8129389B9";
shapes = (
{
closed = 1;
nodes = (
(604,699,l),
(44,700,l),
(44,573,l),
(84,573,l),
(115,652,l),
(495,652,l),
(20,76,l),
(20,42,o),
(20,30,o),
(20,0,c),
(235,0,o),
(464,0,o),
(622,-1,c),
(624,128,l),
(585,128,l),
(549,48,l),
(127,48,l),
(602,623,l),
(604,623,o),
(604,623,o),
(604,623,c),
(604,625,l)
);
}
);
width = 644;
}
);
unicode = 90;
},
{
glyphname = Q.ss01;
lastChange = "2023-05-12 04:15:57 +0000";
layers = (
{
layerId = m01;
shapes = (
{
closed = 1;
nodes = (
(569,-4,o),
(720,154,o),
(720,348,cs),
(720,542,o),
(569,700,o),
(378,700,cs),
(188,700,o),
(36,542,o),
(36,348,cs),
(36,154,o),
(188,-4,o),
(378,-4,cs)
);
},
{
closed = 1;
nodes = (
(719,-70,l),
(634,-118,o),
(605,-143,o),
(540,-118,cs),
(473,-92,o),
(419,-33,o),
(253,-79,c),
(254,-125,l),
(375,-112,o),
(406,-155,o),
(451,-168,cs),
(591,-209,o),
(644,-155,o),
(719,-101,c)
);
},
{
closed = 1;
nodes = (
(244,36,o),
(151,199,o),
(147,377,cs),
(144,500,o),
(213,621,o),
(323,651,c),
(496,651,o),
(616,500,o),
(608,309,c),
(603,188,o),
(564,96,o),
(469,56,c)
);
},
{
closed = 1;
nodes = (
(254,-79,l),
(269,-105,l),
(482,13,l),
(461,50,l)
);
}
);
width = 756;
},
{
associatedMasterId = m01;
layerId = "591E64FC-0B47-4F96-9D6D-0CBC636FFB1E";
name = "May 1, 23, 10:47";
shapes = (
{
closed = 1;
nodes = (
(569,-4,o),
(720,154,o),
(720,348,cs),
(720,542,o),
(569,700,o),
(378,700,cs),
(188,700,o),
(36,542,o),
(36,348,cs),
(36,154,o),
(188,-4,o),
(378,-4,cs)
);
},
{
closed = 1;
nodes = (
(719,-70,l),
(634,-118,o),
(605,-143,o),
(540,-118,cs),
(473,-92,o),
(419,-33,o),
(253,-79,c),
(254,-125,l),
(375,-112,o),
(406,-155,o),
(451,-168,cs),
(591,-209,o),
(644,-155,o),
(719,-101,c)
);
},
{
closed = 1;
nodes = (
(244,36,o),
(151,199,o),
(147,377,cs),
(144,500,o),
(213,621,o),
(323,651,c),
(496,651,o),
(616,500,o),
(608,309,c),
(603,188,o),
(564,96,o),
(469,56,c)
);
},
{
closed = 1;
nodes = (
(254,-79,l),
(269,-105,l),
(482,13,l),
(461,50,l)
);
}
);
width = 756;
},
{
layerId = "DEC8ED1F-2163-436F-ADFD-2EB8129389B9";
shapes = (
{
closed = 1;
nodes = (
(569,-4,o),
(720,154,o),
(720,348,cs),
(720,542,o),
(569,700,o),
(378,700,cs),
(188,700,o),
(36,542,o),
(36,348,cs),
(36,154,o),
(188,-4,o),
(378,-4,cs)
);
},
{
closed = 1;
nodes = (
(719,-70,l),
(634,-118,o),
(605,-143,o),
(540,-118,cs),
(473,-92,o),
(419,-33,o),
(253,-79,c),
(254,-125,l),
(375,-112,o),
(406,-155,o),
(451,-168,cs),
(591,-209,o),
(644,-155,o),
(719,-101,c)
);
},
{
closed = 1;
nodes = (
(244,36,o),
(151,199,o),
(147,377,cs),
(144,500,o),
(213,621,o),
(323,651,c),
(496,651,o),
(616,500,o),
(608,309,c),
(603,188,o),
(564,96,o),
(469,56,c)
);
},
{
closed = 1;
nodes = (
(254,-79,l),
(269,-105,l),
(482,13,l),
(461,50,l)
);
}
);
width = 756;
},
{
associatedMasterId = "DEC8ED1F-2163-436F-ADFD-2EB8129389B9";
layerId = "E080A114-8C4F-4395-9D12-E491914A34DF";
name = "May 1, 23, 10:47";
shapes = (
{
closed = 1;
nodes = (
(569,-4,o),
(720,154,o),
(720,348,cs),
(720,542,o),
(569,700,o),
(378,700,cs),
(188,700,o),
(36,542,o),
(36,348,cs),
(36,154,o),
(188,-4,o),
(378,-4,cs)
);
},
{
closed = 1;
nodes = (
(719,-70,l),
(634,-118,o),
(605,-143,o),
(540,-118,cs),
(473,-92,o),
(419,-33,o),
(253,-79,c),
(254,-125,l),
(375,-112,o),
(406,-155,o),
(451,-168,cs),
(591,-209,o),
(644,-155,o),
(719,-101,c)
);
},
{
closed = 1;
nodes = (
(244,36,o),
(151,199,o),
(147,377,cs),
(144,500,o),
(213,621,o),
(323,651,c),
(496,651,o),
(616,500,o),
(608,309,c),
(603,188,o),
(564,96,o),
(469,56,c)
);
},
{
closed = 1;
nodes = (
(254,-79,l),
(269,-105,l),
(482,13,l),
(461,50,l)
);
}
);
width = 756;
}
);
},
{
glyphname = a;
lastChange = "2025-10-03 15:05:19 +0000";
layers = (
{
background = {
shapes = (
{
closed = 1;
nodes = (
(351,712,l),
(350,447,l),
(308,475,o),
(248,497,o),
(200,500,cs),
(59,509,o),
(-2,407,o),
(-27,304,c),
(-54,127,o),
(45,25,o),
(99,7,cs),
(169,-17,o),
(230,5,o),
(261,16,cs),
(264,17,o),
(326,100,o),
(350,127,c),
(349,17,l),
(434,17,l),
(434,712,l)
);
},
{
closed = 1;
nodes = (
(230,450,o),
(286,441,o),
(349,394,c),
(349,379,o),
(349,210,o),
(349,176,c),
(248,52,o),
(204,52,o),
(154,74,cs),
(87,104,o),
(51,199,o),
(72,313,cs),
(87,393,o),
(135,437,o),
(186,444,cs)
);
},
{
closed = 1;
nodes = (
(292,728,l),
(292,700,l),
(349,700,l),
(434,700,l),
(434,755,l)
);
},
{
closed = 1;
nodes = (
(505,28,l),
(432,45,l),
(349,45,l),
(349,4,l),
(505,0,l)
);
}
);
};
layerId = m01;
shapes = (
{
closed = 1;
nodes = (
(501,39,l),
(430,54,l),
(427,391,ls),
(427,429,o),
(406,467,o),
(373,481,cs),
(306,510,o),
(183,520,o),
(62,425,c),
(62,340,l),
(91,340,l),
(140,420,l),
(262,468,o),
(349,424,o),
(349,364,cs),
(349,138,l),
(349,134,l),
(349,104,l),
(349,102,l),
(349,0,l),
(501,0,l)
);
},
{
closed = 1;
nodes = (
(349,294,o),
(349,293,o),
(349,322,c),
(121,241,o),
(36,220,o),
(33,113,cs),
(32,85,o),
(64,5,o),
(168,-1,cs),
(218,-4,o),
(240,4,o),
(264,17,c),
(350,139,l),
(350,173,l),
(247,73,l),
(208,53,o),
(111,47,o),
(126,145,cs),
(133,188,o),
(208,211,o),
(349,278,c)
);
}
);
width = 523;
},
{
background = {
shapes = (
{
closed = 1;
nodes = (
(351,712,l),
(350,447,l),
(308,475,o),
(248,497,o),
(200,500,cs),
(59,509,o),
(-2,407,o),
(-27,304,c),
(-54,127,o),
(45,25,o),
(99,7,cs),
(169,-17,o),
(230,5,o),
(261,16,cs),
(264,17,o),
(326,100,o),
(350,127,c),
(349,17,l),
(434,17,l),
(434,712,l)
);
},
{
closed = 1;
nodes = (
(230,450,o),
(286,441,o),
(349,394,c),
(349,379,o),
(349,210,o),
(349,176,c),
(248,52,o),
(204,52,o),
(154,74,cs),
(87,104,o),
(51,199,o),
(72,313,cs),
(87,393,o),
(135,437,o),
(186,444,cs)
);
},
{
closed = 1;
nodes = (
(292,728,l),
(292,700,l),
(349,700,l),
(434,700,l),
(434,755,l)
);
},
{
closed = 1;
nodes = (
(505,28,l),
(432,45,l),
(349,45,l),
(349,4,l),
(505,0,l)
);
}
);
};
layerId = "DEC8ED1F-2163-436F-ADFD-2EB8129389B9";
shapes = (
{
closed = 1;
nodes = (
(501,39,l),
(430,54,l),
(427,391,ls),
(427,429,o),
(406,467,o),
(373,481,cs),
(306,510,o),
(183,520,o),
(62,425,c),
(62,340,l),
(91,340,l),
(140,420,l),
(262,468,o),
(349,424,o),
(349,364,cs),
(349,138,l),
(381,180,l),
(381,150,l),
(349,102,l),
(349,0,l),
(501,0,l)
);
},
{
closed = 1;
nodes = (
(349,294,o),
(349,293,o),
(349,322,c),
(121,241,o),
(36,220,o),
(33,113,cs),
(32,85,o),
(64,5,o),
(168,-1,cs),
(218,-4,o),
(240,4,o),
(264,17,c),
(350,139,l),
(350,173,l),
(247,73,l),
(208,53,o),
(111,47,o),
(126,145,cs),
(133,188,o),
(208,211,o),
(349,278,c)
);
}
);
width = 523;
}
);
unicode = 97;
},
{
glyphname = b;
lastChange = "2023-05-19 12:56:20 +0000";
layers = (
{
background = {
shapes = (
{
closed = 1;
nodes = (
(154,-227,l),
(197,-227,l),
(197,52,l),
(241,26,o),
(319,0,o),
(370,0,cs),
(482,0,o),
(576,104,o),
(576,268,cs),
(576,395,o),
(501,503,o),
(375,503,cs),
(342,503,o),
(314,495,o),
(287,482,cs),
(287,482,o),
(218,395,o),
(198,368,c),
(200,501,l),
(31,473,l),
(31,446,l),
(113,446,l),
(113,-227,l)
);
},
{
closed = 1;
nodes = (
(156,-233,l),
(292,-238,l),
(292,-211,l),
(198,-200,l),
(113,-200,l),
(34,-211,l),
(34,-238,l)
);
},
{
closed = 1;
nodes = (
(436,72,o),
(363,57,cs),
(312,46,o),
(246,68,o),
(198,115,c),
(199,142,o),
(197,297,o),
(198,335,c),
(281,417,o),
(346,443,o),
(378,431,cs),
(438,409,o),
(479,349,o),
(479,231,cs),
(479,169,o)
);
}
);
};
layerId = m01;
shapes = (
{
closed = 1;
nodes = (
(190,6,l),
(190,27,l),
(190,32,l),
(190,39,l),
(190,45,l),
(232,10,o),
(292,-6,o),
(358,-3,cs),
(458,2,o),
(535,65,o),
(564,185,c),
(591,362,o),
(519,457,o),
(442,491,cs),
(393,513,o),
(325,503,o),
(280,482,cs),
(275,480,o),
(215,394,o),
(191,367,c),
(191,390,l),
(191,396,l),
(191,401,l),
(192,756,l),
(20,727,l),
(20,690,l),
(107,691,l),
(107,55,l),
(28,39,l),
(28,0,l)
);
},
{
closed = 1;
nodes = (
(192,325,l),
(304,441,o),
(343,436,o),
(367,433,cs),
(447,423,o),
(487,300,o),
(466,186,cs),
(451,106,o),
(415,70,o),
(354,45,cs),
(319,31,o),
(271,32,o),
(192,83,c)
);
}
);
width = 606;
},
{
background = {
shapes = (
{
closed = 1;
nodes = (
(154,-227,l),
(197,-227,l),
(197,52,l),
(241,26,o),
(319,0,o),
(370,0,cs),
(482,0,o),
(576,104,o),
(576,268,cs),
(576,395,o),
(501,503,o),
(375,503,cs),
(342,503,o),
(314,495,o),
(287,482,cs),
(287,482,o),
(218,395,o),
(198,368,c),
(200,501,l),
(31,473,l),
(31,446,l),
(113,446,l),
(113,-227,l)
);
},
{
closed = 1;
nodes = (
(156,-233,l),
(292,-238,l),
(292,-211,l),
(198,-200,l),
(113,-200,l),
(34,-211,l),
(34,-238,l)
);
},
{
closed = 1;
nodes = (
(436,72,o),
(363,57,cs),
(312,46,o),
(246,68,o),
(198,115,c),
(199,142,o),
(197,297,o),
(198,335,c),
(281,417,o),
(346,443,o),
(378,431,cs),
(438,409,o),
(479,349,o),
(479,231,cs),
(479,169,o)
);
}
);
};
layerId = "DEC8ED1F-2163-436F-ADFD-2EB8129389B9";
shapes = (
{
closed = 1;
nodes = (
(190,0,l),
(190,27,l),
(178,37,l),
(178,56,l),
(190,45,l),
(232,10,o),
(292,-6,o),
(358,-3,cs),
(458,2,o),
(535,65,o),
(564,185,c),
(591,362,o),
(519,457,o),
(442,491,cs),
(393,513,o),
(325,503,o),
(280,482,cs),
(275,480,o),
(215,394,o),
(191,367,c),
(147,314,l),
(147,344,l),
(191,401,l),
(192,756,l),
(20,727,l),
(20,690,l),
(107,691,l),
(107,55,l),
(107,39,l),
(107,0,l)
);
},
{
closed = 1;
nodes = (
(192,325,l),
(304,441,o),
(343,436,o),
(367,433,cs),
(447,423,o),
(487,300,o),
(466,186,cs),
(451,106,o),
(415,70,o),
(354,45,cs),
(319,31,o),
(271,32,o),
(192,83,c)
);
}
);
width = 606;
}
);
unicode = 98;
},
{
glyphname = c;
lastChange = "2023-05-12 04:15:57 +0000";
layers = (
{
background = {
shapes = (
{
closed = 1;
nodes = (
(97,245,l),
(476,247,l),
(489,444,o),
(381,504,o),
(262,499,cs),
(122,493,o),
(26,372,o),
(39,227,cs),
(52,86,o),
(158,-13,o),
(282,-3,cs),
(342,2,o),
(409,22,o),
(476,112,c),
(459,131,l),
(422,86,o),
(371,63,o),
(317,49,c),
(269,41,o),
(150,71,o),
(132,258,c),
(132,341,o),
(159,421,o),
(238,457,c),
(299,469,o),
(389,419,o),
(387,295,c),
(94,295,l)
);
}
);
};
layerId = m01;
shapes = (
{
closed = 1;
nodes = (
(437,114,l),
(389,75,o),
(357,63,o),
(321,51,c),
(194,33,o),
(134,174,o),
(134,272,cs),
(134,351,o),
(164,456,o),
(333,456,c),
(402,355,l),
(431,355,l),
(430,453,l),
(392,477,o),
(328,500,o),
(275,500,cs),
(147,500,o),
(38,395,o),
(38,248,cs),
(38,109,o),
(126,-4,o),
(257,-4,cs),
(337,-4,o),
(403,30,o),
(458,91,c)
);
}
);
width = 498;
},
{
background = {
shapes = (
{
closed = 1;
nodes = (
(97,245,l),
(476,247,l),
(489,444,o),
(381,504,o),
(262,499,cs),
(122,493,o),
(26,372,o),
(39,227,cs),
(52,86,o),
(158,-13,o),
(282,-3,cs),
(342,2,o),
(409,22,o),
(476,112,c),
(459,131,l),
(422,86,o),
(371,63,o),
(317,49,c),
(269,41,o),
(150,71,o),
(132,258,c),
(132,341,o),
(159,421,o),
(238,457,c),
(299,469,o),
(389,419,o),
(387,295,c),
(94,295,l)
);
}
);
};
layerId = "DEC8ED1F-2163-436F-ADFD-2EB8129389B9";
shapes = (
{
closed = 1;
nodes = (
(437,114,l),
(389,75,o),
(357,63,o),
(321,51,c),
(194,33,o),
(134,174,o),
(134,272,cs),
(134,351,o),
(164,456,o),
(333,456,c),
(402,355,l),
(431,355,l),
(430,453,l),
(392,477,o),
(328,500,o),
(275,500,cs),
(147,500,o),
(38,395,o),
(38,248,cs),
(38,109,o),
(126,-4,o),
(257,-4,cs),
(337,-4,o),
(403,30,o),
(458,91,c)
);
}
);
width = 498;
}
);
unicode = 99;
},
{
glyphname = d;
lastChange = "2023-05-19 12:56:02 +0000";
layers = (
{
background = {
shapes = (
{
closed = 1;
nodes = (
(468,727,l),
(425,727,l),
(425,448,l),
(381,474,o),
(303,500,o),
(252,500,cs),
(140,500,o),
(46,396,o),
(46,232,cs),
(46,105,o),
(121,-3,o),
(247,-3,cs),
(280,-3,o),
(308,5,o),
(335,18,cs),
(335,18,o),
(404,105,o),
(424,132,c),
(422,-1,l),
(591,27,l),
(591,54,l),
(509,54,l),
(509,727,l)
);
},
{
closed = 1;
nodes = (
(466,733,l),
(330,738,l),
(330,711,l),
(424,700,l),
(509,700,l),
(588,711,l),
(588,738,l)
);
},
{
closed = 1;
nodes = (
(186,428,o),
(259,443,cs),
(310,454,o),
(376,432,o),
(424,385,c),
(423,358,o),
(425,203,o),
(424,165,c),
(312,69,o),
(270,68,o),
(257,69,cs),
(177,77,o),
(143,151,o),
(143,269,cs),
(143,331,o)
);
}
);
};
layerId = m01;
shapes = (
{
closed = 1;
nodes = (
(510,755,l),
(368,728,l),
(368,690,l),
(425,690,l),
(427,690,l),
(426,463,l),
(426,458,l),
(426,454,l),
(426,447,l),
(384,475,o),
(324,497,o),
(276,500,cs),
(135,509,o),
(74,407,o),
(49,304,c),
(22,127,o),
(121,25,o),
(175,7,cs),
(245,-17,o),
(306,5,o),
(337,16,cs),
(340,17,o),
(402,100,o),
(426,127,c),
(426,118,l),
(426,112,l),
(426,109,l),
(425,4,l),
(581,0,l),
(581,39,l),
(510,55,l)
);
},
{
closed = 1;
nodes = (
(163,393,o),
(211,446,o),
(262,453,cs),
(306,459,o),
(353,450,o),
(425,405,c),
(425,176,l),
(324,52,o),
(280,52,o),
(230,74,cs),
(163,104,o),
(127,199,o),
(148,313,cs)
);
}
);
width = 589;
},
{
background = {
shapes = (
{
closed = 1;
nodes = (
(468,727,l),
(425,727,l),
(425,448,l),
(381,474,o),
(303,500,o),
(252,500,cs),
(140,500,o),
(46,396,o),
(46,232,cs),
(46,105,o),
(121,-3,o),
(247,-3,cs),
(280,-3,o),
(308,5,o),
(335,18,cs),
(335,18,o),
(404,105,o),
(424,132,c),
(422,-1,l),
(591,27,l),
(591,54,l),
(509,54,l),
(509,727,l)
);
},
{
closed = 1;
nodes = (
(466,733,l),
(330,738,l),
(330,711,l),
(424,700,l),
(509,700,l),
(588,711,l),
(588,738,l)
);
},
{
closed = 1;
nodes = (
(186,428,o),
(259,443,cs),
(310,454,o),
(376,432,o),
(424,385,c),
(423,358,o),
(425,203,o),
(424,165,c),
(312,69,o),
(270,68,o),
(257,69,cs),
(177,77,o),
(143,151,o),
(143,269,cs),
(143,331,o)
);
}
);
};
layerId = "DEC8ED1F-2163-436F-ADFD-2EB8129389B9";
shapes = (
{
closed = 1;
nodes = (
(510,755,l),
(368,728,l),
(368,690,l),
(425,690,l),
(427,690,l),
(426,472,l),
(475,438,l),
(475,412,l),
(426,447,l),
(384,475,o),
(324,497,o),
(276,500,cs),
(135,509,o),
(74,407,o),
(49,304,c),
(22,127,o),
(121,25,o),
(175,7,cs),
(245,-17,o),
(306,5,o),
(337,16,cs),
(340,17,o),
(402,100,o),
(426,127,c),
(447,150,l),
(447,120,l),
(426,93,l),
(425,0,l),
(581,0,l),
(581,39,l),
(510,55,l)
);
},
{
closed = 1;
nodes = (
(163,393,o),
(211,446,o),
(262,453,cs),
(306,459,o),
(353,450,o),
(425,405,c),
(425,176,l),
(324,52,o),
(280,52,o),
(230,74,cs),
(163,104,o),
(127,199,o),
(148,313,cs)
);
}
);
width = 589;
}
);
unicode = 100;
},
{
glyphname = e;
lastChange = "2023-05-12 04:15:57 +0000";
layers = (
{
background = {
shapes = (
{
closed = 1;
nodes = (
(402,-4,o),
(509,109,o),
(509,248,cs),
(509,387,o),
(402,500,o),
(271,500,cs),
(140,500,o),
(33,387,o),
(33,248,cs),
(33,109,o),
(140,-4,o),
(271,-4,cs)
);
},
{
closed = 1;
nodes = (
(380,71,o),
(315,43,c),
(184,42,o),
(122,169,o),
(131,266,cs),
(137,345,o),
(173,441,o),
(251,456,c),
(369,445,o),
(417,303,o),
(409,211,cs),
(401,124,o)
);
}
);
};
layerId = m01;
shapes = (
{
closed = 1;
nodes = (
(95,245,l),
(474,247,l),
(487,444,o),
(379,504,o),
(260,499,cs),
(120,493,o),
(24,372,o),
(37,227,cs),
(50,86,o),
(156,-13,o),
(280,-3,cs),
(340,2,o),
(407,22,o),
(474,112,c),
(457,131,l),
(420,86,o),
(369,63,o),
(315,49,c),
(267,41,o),
(148,71,o),
(130,258,c),
(130,341,o),
(157,421,o),
(236,457,c),
(297,469,o),
(387,419,o),
(385,295,c),
(92,295,l)
);
}
);
width = 523;
},
{
background = {
shapes = (
{
closed = 1;
nodes = (
(402,-4,o),
(509,109,o),
(509,248,cs),
(509,387,o),
(402,500,o),
(271,500,cs),
(140,500,o),
(33,387,o),
(33,248,cs),
(33,109,o),
(140,-4,o),
(271,-4,cs)
);
},
{
closed = 1;
nodes = (
(380,71,o),
(315,43,c),
(184,42,o),
(122,169,o),
(131,266,cs),
(137,345,o),
(173,441,o),
(251,456,c),
(369,445,o),
(417,303,o),
(409,211,cs),
(401,124,o)
);
}
);
};
layerId = "DEC8ED1F-2163-436F-ADFD-2EB8129389B9";
shapes = (
{
closed = 1;
nodes = (
(95,245,l),
(474,247,l),
(487,444,o),
(379,504,o),
(260,499,cs),
(120,493,o),
(24,372,o),
(37,227,cs),
(50,86,o),
(156,-13,o),
(280,-3,cs),
(340,2,o),
(407,22,o),
(474,112,c),
(457,131,l),
(420,86,o),
(369,63,o),
(315,49,c),
(267,41,o),
(148,71,o),
(130,258,c),
(130,341,o),
(157,421,o),
(236,457,c),
(297,469,o),
(387,419,o),
(385,295,c),
(92,295,l)
);
}
);
width = 523;
}
);
unicode = 101;
},
{
glyphname = f;
lastChange = "2023-05-12 04:15:57 +0000";
layers = (
{
background = {
shapes = (
{
closed = 1;
nodes = (
(175,3,l),
(338,0,l),
(338,28,l),
(218,62,l),
(133,62,l),
(54,28,l),
(54,0,l)
);
},
{
closed = 1;
nodes = (
(217,675,o),
(240,707,o),
(334,707,c),
(392,623,l),
(426,623,l),
(426,744,l),
(419,759,o),
(378,762,o),
(321,762,c),
(218,762,o),
(133,665,o),
(133,505,cs),
(133,11,l),
(217,11,l),
(217,552,l)
);
},
{
closed = 1;
nodes = (
(120,499,l),
(74,478,l),
(74,445,l),
(381,445,l),
(381,499,l)
);
}
);
};
layerId = m01;
shapes = (
{
closed = 1;
nodes = (
(175,6,l),
(311,0,l),
(311,39,l),
(218,55,l),
(217,55,l),
(217,435,l),
(370,435,l),
(370,489,l),
(217,489,l),
(217,597,l),
(223,654,o),
(247,715,o),
(344,707,c),
(369,672,o),
(380,654,o),
(405,609,c),
(434,609,l),
(434,712,l),
(378,762,o),
(297,760,o),
(252,745,cs),
(200,728,o),
(132,651,o),
(132,566,cs),
(132,488,l),
(30,478,l),
(30,435,l),
(132,435,l),
(132,55,l),
(53,39,l),
(53,0,l)
);
}
);
width = 384;
},
{
background = {
shapes = (
{
closed = 1;
nodes = (
(175,3,l),
(338,0,l),
(338,28,l),
(218,62,l),
(133,62,l),
(54,28,l),
(54,0,l)
);
},
{
closed = 1;
nodes = (
(217,675,o),
(240,707,o),
(334,707,c),
(392,623,l),
(426,623,l),
(426,744,l),
(419,759,o),
(378,762,o),
(321,762,c),
(218,762,o),
(133,665,o),
(133,505,cs),
(133,11,l),
(217,11,l),
(217,552,l)
);
},
{
closed = 1;
nodes = (
(120,499,l),
(74,478,l),
(74,445,l),
(381,445,l),
(381,499,l)
);
}
);
};
layerId = "DEC8ED1F-2163-436F-ADFD-2EB8129389B9";
shapes = (
{
closed = 1;
nodes = (
(175,0,l),
(311,0,l),
(311,39,l),
(218,55,l),
(217,55,l),
(217,435,l),
(370,435,l),
(370,489,l),
(217,489,l),
(217,597,l),
(223,654,o),
(247,715,o),
(344,707,c),
(369,672,o),
(380,654,o),
(405,609,c),
(434,609,l),
(434,712,l),
(378,762,o),
(297,760,o),
(252,745,cs),
(200,728,o),
(132,651,o),
(132,566,cs),
(132,488,l),
(30,478,l),
(30,435,l),
(132,435,l),
(132,55,l),
(53,39,l),
(53,0,l)
);
}
);
width = 384;
}
);
unicode = 102;
},
{
glyphname = g;
lastChange = "2023-05-12 04:15:57 +0000";
layers = (
{
layerId = m01;
shapes = (
{
closed = 1;
nodes = (
(18,-231,o),
(192,-244,o),
(278,-240,cs),
(394,-232,o),
(515,-125,o),
(528,-60,cs),
(549,42,o),
(495,48,o),
(295,55,cs),
(293,55,ls),
(241,55,o),
(206,69,o),
(202,78,cs),
(197,89,o),
(221,110,o),
(301,127,cs),
(311,129,o),
(320,132,o),
(329,135,cs),
(404,164,o),
(466,230,o),
(466,311,cs),
(466,358,o),
(447,398,o),
(416,429,c),
(477,429,l),
(478,513,l),
(371,464,l),
(339,483,o),
(301,496,o),
(261,500,cs),
(151,513,o),
(53,415,o),
(53,310,cs),
(53,225,o),
(120,157,o),
(200,131,c),
(89,75,o),
(93,11,o),
(173,-2,c),
(105,-46,o),
(37,-104,o),
(32,-140,cs)
);
},
{
closed = 1;
nodes = (
(139,-58,o),
(207,-27,o),
(250,-13,c),
(303,-13,o),
(437,-7,o),
(439,-66,cs),
(440,-105,o),
(381,-165,o),
(323,-187,c),
(238,-213,o),
(139,-184,o),
(139,-114,cs)
);
},
{
closed = 1;
nodes = (
(145,388,o),
(172,449,o),
(224,459,c),
(334,454,o),
(375,362,o),
(375,291,cs),
(375,235,o),
(338,178,o),
(303,171,cs),
(223,155,o),
(145,255,o),
(145,330,cs)
);
}
);
width = 540;
},
{
layerId = "DEC8ED1F-2163-436F-ADFD-2EB8129389B9";
shapes = (
{
closed = 1;
nodes = (
(18,-231,o),
(192,-244,o),
(278,-240,cs),
(394,-232,o),
(515,-125,o),
(528,-60,cs),
(549,42,o),
(495,48,o),
(295,55,cs),
(293,55,ls),
(241,55,o),
(206,69,o),
(202,78,cs),
(197,89,o),
(221,110,o),
(301,127,cs),
(311,129,o),
(320,132,o),
(329,135,cs),
(404,164,o),
(466,230,o),
(466,311,cs),
(466,358,o),
(447,398,o),
(416,429,c),
(477,429,l),
(478,513,l),
(371,464,l),
(339,483,o),
(301,496,o),
(261,500,cs),
(151,513,o),
(53,415,o),
(53,310,cs),
(53,225,o),
(120,157,o),
(200,131,c),
(89,75,o),
(93,11,o),
(173,-2,c),
(105,-46,o),
(37,-104,o),
(32,-140,cs)
);
},
{
closed = 1;
nodes = (
(139,-58,o),
(207,-27,o),
(250,-13,c),
(303,-13,o),
(437,-7,o),
(439,-66,cs),
(440,-105,o),
(381,-165,o),
(323,-187,c),
(238,-213,o),
(139,-184,o),
(139,-114,cs)
);
},
{
closed = 1;
nodes = (
(145,388,o),
(172,449,o),
(224,459,c),
(334,454,o),
(375,362,o),
(375,291,cs),
(375,235,o),
(338,178,o),
(303,171,cs),
(223,155,o),
(145,255,o),
(145,330,cs)
);
}
);
width = 540;
}
);
unicode = 103;
},
{
glyphname = h;
lastChange = "2023-05-12 04:15:57 +0000";
layers = (
{
layerId = m01;
shapes = (
{
closed = 1;
nodes = (
(152,6,l),
(265,0,l),
(265,39,l),
(195,55,l),
(194,55,l),
(194,324,l),
(294,411,l),
(327,426,o),
(356,427,o),
(378,420,c),
(427,399,o),
(445,353,o),
(445,308,cs),
(444,55,l),
(373,39,l),
(373,0,l),
(490,6,l),
(609,0,l),
(609,39,l),
(530,55,l),
(530,352,ls),
(530,415,o),
(492,472,o),
(437,491,cs),
(416,498,o),
(359,504,o),
(294,500,c),
(195,369,l),
(195,376,l),
(195,380,l),
(195,385,l),
(195,755,l),
(20,728,l),
(20,690,l),
(110,690,l),
(110,55,l),
(31,39,l),
(31,0,l)
);
}
);
width = 615;
},
{
layerId = "DEC8ED1F-2163-436F-ADFD-2EB8129389B9";
shapes = (
{
closed = 1;
nodes = (
(152,6,l),
(265,0,l),
(265,39,l),
(195,55,l),
(194,55,l),
(194,324,l),
(294,411,l),
(327,426,o),
(356,427,o),
(378,420,c),
(427,399,o),
(445,353,o),
(445,308,cs),
(444,55,l),
(373,39,l),
(373,0,l),
(490,6,l),
(609,0,l),
(609,39,l),
(530,55,l),
(530,352,ls),
(530,415,o),
(492,472,o),
(437,491,cs),
(416,498,o),
(359,504,o),
(294,500,c),
(195,369,l),
(161,329,l),
(161,352,l),
(195,403,l),
(195,755,l),
(20,728,l),
(20,690,l),
(110,690,l),
(110,55,l),
(31,39,l),
(31,0,l)
);
}
);
width = 615;
}
);
unicode = 104;
},
{
glyphname = i;
lastChange = "2023-05-12 04:15:57 +0000";
layers = (
{
layerId = m01;
shapes = (
{
closed = 1;
nodes = (
(154,4,l),
(275,1,l),
(275,39,l),
(197,55,l),
(196,55,l),
(196,501,l),
(20,474,l),
(20,436,l),
(111,436,l),
(111,55,l),
(32,39,l),
(32,0,l)
);
},
{
closed = 1;
nodes = (
(79,662,o),
(75,643,o),
(86,609,cs),
(93,589,o),
(98,584,o),
(119,567,c),
(197,583,l),
(200,609,o),
(207,639,o),
(192,667,cs),
(182,685,o),
(178,690,o),
(162,700,c),
(84,685,l)
);
}
);
width = 295;
},
{
layerId = "DEC8ED1F-2163-436F-ADFD-2EB8129389B9";
shapes = (
{
closed = 1;
nodes = (
(154,4,l),
(275,1,l),
(275,39,l),
(197,55,l),
(196,55,l),
(196,501,l),
(20,474,l),
(20,436,l),
(111,436,l),
(111,55,l),
(32,39,l),
(32,0,l)
);
},
{
closed = 1;
nodes = (
(79,662,o),
(75,643,o),
(86,609,cs),
(93,589,o),
(98,584,o),
(119,567,c),
(197,583,l),
(200,609,o),
(207,639,o),
(192,667,cs),
(182,685,o),
(178,690,o),
(162,700,c),
(84,685,l)
);
}
);
width = 295;
}
);
unicode = 105;
},
{
glyphname = j;
lastChange = "2023-05-12 04:15:57 +0000";
layers = (
{
background = {
shapes = (
{
closed = 1;
nodes = (
(120,529,l),
(120,39,l),
(120,-58,l),
(114,-115,o),
(108,-175,o),
(-11,-168,c),
(-31,-127,o),
(-41,-102,o),
(-75,-37,c),
(-109,-37,l),
(-109,-99,o),
(-109,-173,o),
(-109,-173,c),
(-54,-218,o),
(40,-221,o),
(85,-206,cs),
(137,-189,o),
(204,-112,o),
(204,-27,c),
(204,39,l),
(204,529,l)
);
},
{
closed = 1;
nodes = (
(162,533,l),
(31,539,l),
(31,515,l),
(119,502,l),
(204,502,l),
(283,513,l),
(283,539,l)
);
}
);
};
layerId = m01;
shapes = (
{
closed = 1;
nodes = (
(207,11,c),
(207,501,l),
(31,474,l),
(31,436,l),
(122,436,l),
(122,-97,l),
(119,-166,o),
(94,-208,o),
(31,-208,c),
(-17,-109,l),
(-50,-109,l),
(-50,-213,l),
(123,-302,o),
(207,-183,o)
);
},
{
closed = 1;
nodes = (
(94,685,l),
(89,662,o),
(85,643,o),
(96,609,cs),
(103,589,o),
(108,584,o),
(129,567,c),
(207,583,l),
(210,609,o),
(217,639,o),
(202,667,cs),
(192,685,o),
(188,690,o),
(172,700,c)
);
}
);
width = 291;
},
{
background = {
shapes = (
{
closed = 1;
nodes = (
(120,529,l),
(120,39,l),
(120,-58,l),
(114,-115,o),
(108,-175,o),
(-11,-168,c),
(-31,-127,o),
(-41,-102,o),
(-75,-37,c),
(-109,-37,l),
(-109,-99,o),
(-109,-173,o),
(-109,-173,c),
(-54,-218,o),
(40,-221,o),
(85,-206,cs),
(137,-189,o),
(204,-112,o),
(204,-27,c),
(204,39,l),
(204,529,l)
);
},
{
closed = 1;
nodes = (
(162,533,l),
(31,539,l),
(31,515,l),
(119,502,l),
(204,502,l),
(283,513,l),
(283,539,l)
);
}
);
};
layerId = "DEC8ED1F-2163-436F-ADFD-2EB8129389B9";
shapes = (
{
closed = 1;
nodes = (
(207,11,c),
(207,501,l),
(31,474,l),
(31,436,l),
(122,436,l),
(122,-97,l),
(119,-166,o),
(94,-208,o),
(31,-208,c),
(-17,-109,l),
(-50,-109,l),
(-50,-213,l),
(123,-302,o),
(207,-183,o)
);
},
{
closed = 1;
nodes = (
(94,685,l),
(89,662,o),
(85,643,o),
(96,609,cs),
(103,589,o),
(108,584,o),
(129,567,c),
(207,583,l),
(210,609,o),
(217,639,o),
(202,667,cs),
(192,685,o),
(188,690,o),
(172,700,c)
);
}
);
width = 291;
}
);
unicode = 106;
},
{
glyphname = k;
lastChange = "2023-05-12 04:15:57 +0000";
layers = (
{
background = {
shapes = (
{
closed = 1;
nodes = (
(190,10,l),
(190,324,l),
(290,411,l),
(323,426,o),
(352,427,o),
(374,420,c),
(423,399,o),
(441,353,o),
(441,308,c),
(440,10,l),
(526,10,l),
(526,352,l),
(526,415,o),
(488,472,o),
(433,491,cs),
(412,498,o),
(355,504,o),
(290,500,c),
(191,369,l),
(191,755,l),
(16,728,l),
(16,700,l),
(106,700,l),
(106,10,l)
);
},
{
closed = 1;
nodes = (
(148,6,l),
(261,0,l),
(261,24,l),
(191,37,l),
(106,37,l),
(27,26,l),
(27,0,l)
);
},
{
closed = 1;
nodes = (
(486,6,l),
(605,0,l),
(605,23,l),
(526,37,l),
(440,37,l),
(370,21,l),
(370,0,l)
);
}
);
};
layerId = m01;
shapes = (
{
closed = 1;
nodes = (
(147,6,l),
(260,0,l),
(260,39,l),
(190,55,l),
(189,55,l),
(189,263,l),
(215,263,l),
(398,48,l),
(361,39,l),
(361,0,l),
(478,6,l),
(589,0,l),
(589,39,l),
(507,55,l),
(499,55,l),
(289,308,l),
(265,308,l),
(419,447,l),
(496,467,l),
(496,500,l),
(413,496,l),
(305,500,l),
(305,469,l),
(361,451,l),
(202,308,l),
(190,296,l),
(190,324,l),
(190,325,l),
(190,755,l),
(15,728,l),
(15,690,l),
(105,690,l),
(105,55,l),
(26,39,l),
(26,0,l)
);
}
);
width = 561;
},
{
background = {
shapes = (
{
closed = 1;
nodes = (
(190,10,l),
(190,324,l),
(290,411,l),
(323,426,o),
(352,427,o),
(374,420,c),
(423,399,o),
(441,353,o),
(441,308,c),
(440,10,l),
(526,10,l),
(526,352,l),
(526,415,o),
(488,472,o),
(433,491,cs),
(412,498,o),
(355,504,o),
(290,500,c),
(191,369,l),
(191,755,l),
(16,728,l),
(16,700,l),
(106,700,l),
(106,10,l)
);
},
{
closed = 1;
nodes = (
(148,6,l),
(261,0,l),
(261,24,l),
(191,37,l),
(106,37,l),
(27,26,l),
(27,0,l)
);
},
{
closed = 1;
nodes = (
(486,6,l),
(605,0,l),
(605,23,l),
(526,37,l),
(440,37,l),
(370,21,l),
(370,0,l)
);
}
);
};
layerId = "DEC8ED1F-2163-436F-ADFD-2EB8129389B9";
shapes = (
{
closed = 1;
nodes = (
(147,6,l),
(260,0,l),
(260,39,l),
(190,55,l),
(189,55,l),
(189,263,l),
(215,263,l),
(398,48,l),
(361,39,l),
(361,0,l),
(478,6,l),
(589,0,l),
(589,39,l),
(507,55,l),
(499,55,l),
(289,308,l),
(265,308,l),
(419,447,l),
(496,467,l),
(496,500,l),
(413,496,l),
(305,500,l),
(305,469,l),
(361,451,l),
(202,308,l),
(147,256,l),
(147,286,l),
(190,325,l),
(190,755,l),
(15,728,l),
(15,690,l),
(105,690,l),
(105,55,l),
(26,39,l),
(26,0,l)
);
}
);
width = 561;
}
);
unicode = 107;
},
{
glyphname = l;
lastChange = "2023-05-12 04:15:57 +0000";
layers = (
{
background = {
shapes = (
{
closed = 1;
nodes = (
(199,10,l),
(199,324,l),
(299,411,l),
(332,426,o),
(361,427,o),
(383,420,c),
(432,399,o),
(450,353,o),
(450,308,c),
(449,10,l),
(535,10,l),
(535,352,l),
(535,415,o),
(497,472,o),
(442,491,cs),
(421,498,o),
(364,504,o),
(299,500,c),
(200,369,l),
(200,755,l),
(25,728,l),
(25,700,l),
(115,700,l),
(115,10,l)
);
},
{
closed = 1;
nodes = (
(157,6,l),
(270,0,l),
(270,24,l),
(200,37,l),
(115,37,l),
(36,26,l),
(36,0,l)
);
},
{
closed = 1;
nodes = (
(495,6,l),
(614,0,l),
(614,23,l),
(535,37,l),
(449,37,l),
(379,21,l),
(379,0,l)
);
}
);
};
layerId = m01;
shapes = (
{
closed = 1;
nodes = (
(314,0,l),
(314,38,l),
(199,55,l),
(200,755,l),
(25,728,l),
(25,690,l),
(115,690,l),
(115,55,l),
(36,38,l),
(36,0,l)
);
}
);
width = 324;
},
{
background = {
shapes = (
{
closed = 1;
nodes = (
(199,10,l),
(199,324,l),
(299,411,l),
(332,426,o),
(361,427,o),
(383,420,c),
(432,399,o),
(450,353,o),
(450,308,c),
(449,10,l),
(535,10,l),
(535,352,l),
(535,415,o),
(497,472,o),
(442,491,cs),
(421,498,o),
(364,504,o),
(299,500,c),
(200,369,l),
(200,755,l),
(25,728,l),
(25,700,l),
(115,700,l),
(115,10,l)
);
},
{
closed = 1;
nodes = (
(157,6,l),
(270,0,l),
(270,24,l),
(200,37,l),
(115,37,l),
(36,26,l),
(36,0,l)
);
},
{
closed = 1;
nodes = (
(495,6,l),
(614,0,l),
(614,23,l),
(535,37,l),
(449,37,l),
(379,21,l),
(379,0,l)
);
}
);
};
layerId = "DEC8ED1F-2163-436F-ADFD-2EB8129389B9";
shapes = (
{
closed = 1;
nodes = (
(314,0,l),
(314,38,l),
(199,55,l),
(200,755,l),
(25,728,l),
(25,690,l),
(115,690,l),
(115,55,l),
(36,38,l),
(36,0,l)
);
}
);
width = 324;
}
);
unicode = 108;
},
{
glyphname = m;
lastChange = "2023-05-12 04:15:57 +0000";
layers = (
{
background = {
shapes = (
{
closed = 1;
nodes = (
(195,10,l),
(195,324,l),
(295,411,l),
(328,426,o),
(357,427,o),
(379,420,c),
(428,399,o),
(446,353,o),
(446,308,c),
(445,10,l),
(531,10,l),
(531,352,l),
(531,415,o),
(493,472,o),
(438,491,cs),
(417,498,o),
(360,504,o),
(295,500,c),
(196,369,l),
(196,501,l),
(21,474,l),
(21,446,l),
(111,446,l),
(111,10,l)
);
},
{
closed = 1;
nodes = (
(153,3,l),
(266,0,l),
(266,21,l),
(196,37,l),
(111,37,l),
(31,21,l),
(31,0,l)
);
},
{
closed = 1;
nodes = (
(491,3,l),
(611,0,l),
(611,21,l),
(531,37,l),
(445,37,l),
(375,21,l),
(375,0,l)
);
}
);
};
layerId = m01;
shapes = (
{
closed = 1;
nodes = (
(152,4,l),
(264,0,l),
(264,39,l),
(195,55,l),
(194,55,l),
(194,325,l),
(281,412,l),
(314,427,o),
(333,428,o),
(355,421,c),
(404,400,o),
(422,354,o),
(422,309,cs),
(421,55,l),
(351,39,l),
(351,0,l),
(467,4,l),
(577,0,l),
(577,39,l),
(507,55,l),
(507,335,l),
(539,367,o),
(566,384,o),
(592,402,cs),
(617,418,o),
(640,431,o),
(667,425,cs),
(719,413,o),
(734,358,o),
(734,313,cs),
(733,55,l),
(663,39,l),
(663,0,l),
(779,2,l),
(898,0,l),
(898,39,l),
(819,55,l),
(819,357,ls),
(819,420,o),
(788,478,o),
(733,497,cs),
(702,508,o),
(657,511,o),
(623,492,c),
(623,492,o),
(559,432,o),
(505,378,c),
(496,431,o),
(462,476,o),
(414,492,cs),
(383,503,o),
(339,507,o),
(303,495,cs),
(300,494,o),
(219,397,o),
(195,370,c),
(195,381,l),
(195,387,l),
(195,393,l),
(196,501,l),
(20,474,l),
(20,436,l),
(109,436,l),
(109,55,l),
(30,39,l),
(30,0,l)
);
}
);
width = 904;
},
{
background = {
shapes = (
{
closed = 1;
nodes = (
(195,10,l),
(195,324,l),
(295,411,l),
(328,426,o),
(357,427,o),
(379,420,c),
(428,399,o),
(446,353,o),
(446,308,c),
(445,10,l),
(531,10,l),
(531,352,l),
(531,415,o),
(493,472,o),
(438,491,cs),
(417,498,o),
(360,504,o),
(295,500,c),
(196,369,l),
(196,501,l),
(21,474,l),
(21,446,l),
(111,446,l),
(111,10,l)
);
},
{
closed = 1;
nodes = (
(153,3,l),
(266,0,l),
(266,21,l),
(196,37,l),
(111,37,l),
(31,21,l),
(31,0,l)
);
},
{
closed = 1;
nodes = (
(491,3,l),
(611,0,l),
(611,21,l),
(531,37,l),
(445,37,l),
(375,21,l),
(375,0,l)
);
}
);
};
layerId = "DEC8ED1F-2163-436F-ADFD-2EB8129389B9";
shapes = (
{
closed = 1;
nodes = (
(152,4,l),
(264,0,l),
(264,39,l),
(195,55,l),
(194,55,l),
(194,325,l),
(281,412,l),
(314,427,o),
(333,428,o),
(355,421,c),
(404,400,o),
(422,354,o),
(422,309,cs),
(421,55,l),
(351,39,l),
(351,0,l),
(467,4,l),
(577,0,l),
(577,39,l),
(507,55,l),
(507,335,l),
(539,367,o),
(566,384,o),
(592,402,cs),
(617,418,o),
(640,431,o),
(667,425,cs),
(719,413,o),
(734,358,o),
(734,313,cs),
(733,55,l),
(663,39,l),
(663,0,l),
(779,2,l),
(898,0,l),
(898,39,l),
(819,55,l),
(819,357,ls),
(819,420,o),
(788,478,o),
(733,497,cs),
(702,508,o),
(657,511,o),
(623,492,c),
(623,492,o),
(559,432,o),
(505,378,c),
(496,431,o),
(462,476,o),
(414,492,cs),
(383,503,o),
(339,507,o),
(303,495,cs),
(300,494,o),
(219,397,o),
(195,370,c),
(161,329,l),
(161,359,l),
(195,400,l),
(196,501,l),
(20,474,l),
(20,436,l),
(109,436,l),
(109,55,l),
(30,39,l),
(30,0,l)
);
}
);
width = 904;
}
);
unicode = 109;
},
{
glyphname = n;
lastChange = "2023-05-12 04:15:57 +0000";
layers = (
{
layerId = m01;
shapes = (
{
closed = 1;
nodes = (
(152,3,l),
(265,0,l),
(265,39,l),
(195,55,l),
(194,55,l),
(194,324,l),
(294,411,l),
(327,426,o),
(356,427,o),
(378,420,c),
(427,399,o),
(445,353,o),
(445,308,cs),
(444,55,l),
(374,39,l),
(374,0,l),
(490,3,l),
(609,0,l),
(609,39,l),
(530,55,l),
(530,352,ls),
(530,415,o),
(492,472,o),
(437,491,cs),
(416,498,o),
(359,504,o),
(294,500,c),
(195,359,l),
(195,366,l),
(195,375,l),
(195,388,l),
(195,501,l),
(20,474,l),
(20,436,l),
(110,436,l),
(110,55,l),
(31,39,l),
(31,0,l)
);
}
);
width = 615;
},
{
layerId = "DEC8ED1F-2163-436F-ADFD-2EB8129389B9";
shapes = (
{
closed = 1;
nodes = (
(152,3,l),
(265,0,l),
(265,39,l),
(195,55,l),
(194,55,l),
(194,324,l),
(294,411,l),
(327,426,o),
(356,427,o),
(378,420,c),
(427,399,o),
(445,353,o),
(445,308,cs),
(444,55,l),
(374,39,l),
(374,0,l),
(490,3,l),
(609,0,l),
(609,39,l),
(530,55,l),
(530,352,ls),
(530,415,o),
(492,472,o),
(437,491,cs),
(416,498,o),
(359,504,o),
(294,500,c),
(195,370,l),
(160,324,l),
(160,354,l),
(195,399,l),
(195,501,l),
(20,474,l),
(20,436,l),
(110,436,l),
(110,55,l),
(31,39,l),
(31,0,l)
);
}
);
width = 615;
}
);
unicode = 110;
},
{
glyphname = o;
lastChange = "2023-05-12 04:15:57 +0000";
layers = (
{
background = {
shapes = (
{
closed = 1;
nodes = (
(405,-4,o),
(512,109,o),
(512,248,cs),
(512,387,o),
(405,500,o),
(274,500,cs),
(143,500,o),
(36,387,o),
(36,248,cs),
(36,109,o),
(143,-4,o),
(274,-4,cs)
);
},
{
closed = 1;
nodes = (
(331,51,o),
(297,51,c),
(239,63,o),
(158,103,o),
(141,199,cs),
(125,278,o),
(133,341,o),
(167,389,cs),
(188,417,o),
(222,444,o),
(251,446,c),
(303,435,o),
(390,383,o),
(408,286,cs),
(427,202,o),
(405,132,o),
(379,98,cs),
(360,74,o)
);
}
);
};
layerId = m01;
shapes = (
{
closed = 1;
nodes = (
(405,-4,o),
(512,109,o),
(512,248,cs),
(512,387,o),
(405,500,o),
(274,500,cs),
(143,500,o),
(36,387,o),
(36,248,cs),
(36,109,o),
(143,-4,o),
(274,-4,cs)
);
},
{
closed = 1;
nodes = (
(383,71,o),
(318,43,c),
(187,42,o),
(125,169,o),
(134,266,cs),
(140,345,o),
(176,441,o),
(254,456,c),
(372,445,o),
(420,303,o),
(412,211,cs),
(404,124,o)
);
}
);
width = 548;
},
{
associatedMasterId = m01;
background = {
shapes = (
{
closed = 1;
nodes = (
(409,-4,o),
(516,109,o),
(516,248,cs),
(516,387,o),
(409,500,o),
(278,500,cs),
(147,500,o),
(40,387,o),
(40,248,cs),
(40,109,o),
(147,-4,o),
(278,-4,cs)
);
},
{
closed = 1;
nodes = (
(335,51,o),
(301,51,c),
(243,63,o),
(162,103,o),
(145,199,cs),
(129,278,o),
(137,341,o),
(171,389,cs),
(192,417,o),
(226,444,o),
(255,446,c),
(307,435,o),
(394,383,o),
(412,286,cs),
(431,202,o),
(409,132,o),
(383,98,cs),
(364,74,o)
);
}
);
};
layerId = "0FF9D64D-CF64-40B7-A709-BDFD0D08CC91";
name = "Apr 24, 23, 10:11";
shapes = (
{
closed = 1;
nodes = (
(409,-4,o),
(516,109,o),
(516,248,cs),
(516,387,o),
(409,500,o),
(278,500,cs),
(147,500,o),
(40,387,o),
(40,248,cs),
(40,109,o),
(147,-4,o),
(278,-4,cs)
);
},
{
closed = 1;
nodes = (
(403,81,o),
(340,47,c),
(210,35,o),
(137,156,o),
(137,254,cs),
(137,333,o),
(164,433,o),
(240,454,c),
(359,454,o),
(419,315,o),
(419,223,cs),
(419,136,o)
);
}
);
width = 556;
},
{
background = {
shapes = (
{
closed = 1;
nodes = (
(405,-4,o),
(512,109,o),
(512,248,cs),
(512,387,o),
(405,500,o),
(274,500,cs),
(143,500,o),
(36,387,o),
(36,248,cs),
(36,109,o),
(143,-4,o),
(274,-4,cs)
);
},
{
closed = 1;
nodes = (
(331,51,o),
(297,51,c),
(239,63,o),
(158,103,o),
(141,199,cs),
(125,278,o),
(133,341,o),
(167,389,cs),
(188,417,o),
(222,444,o),
(251,446,c),
(303,435,o),
(390,383,o),
(408,286,cs),
(427,202,o),
(405,132,o),
(379,98,cs),
(360,74,o)
);
}
);
};
layerId = "DEC8ED1F-2163-436F-ADFD-2EB8129389B9";
shapes = (
{
closed = 1;
nodes = (
(405,-4,o),
(512,109,o),
(512,248,cs),
(512,387,o),
(405,500,o),
(274,500,cs),
(143,500,o),
(36,387,o),
(36,248,cs),
(36,109,o),
(143,-4,o),
(274,-4,cs)
);
},
{
closed = 1;
nodes = (
(383,71,o),
(318,43,c),
(187,42,o),
(125,169,o),
(134,266,cs),
(140,345,o),
(176,441,o),
(254,456,c),
(372,445,o),
(420,303,o),
(412,211,cs),
(404,124,o)
);
}
);
width = 548;
},
{
associatedMasterId = "DEC8ED1F-2163-436F-ADFD-2EB8129389B9";
background = {
shapes = (
{
closed = 1;
nodes = (
(409,-4,o),
(516,109,o),
(516,248,cs),
(516,387,o),
(409,500,o),
(278,500,cs),
(147,500,o),
(40,387,o),
(40,248,cs),
(40,109,o),
(147,-4,o),
(278,-4,cs)
);
},
{
closed = 1;
nodes = (
(335,51,o),
(301,51,c),
(243,63,o),
(162,103,o),
(145,199,cs),
(129,278,o),
(137,341,o),
(171,389,cs),
(192,417,o),
(226,444,o),
(255,446,c),
(307,435,o),
(394,383,o),
(412,286,cs),
(431,202,o),
(409,132,o),
(383,98,cs),
(364,74,o)
);
}
);
};
layerId = "C5B9ABF2-D587-4468-99C5-D03D5D971D9C";
name = "Apr 24, 23, 10:11";
shapes = (
{
closed = 1;
nodes = (
(409,-4,o),
(516,109,o),
(516,248,cs),
(516,387,o),
(409,500,o),
(278,500,cs),
(147,500,o),
(40,387,o),
(40,248,cs),
(40,109,o),
(147,-4,o),
(278,-4,cs)
);
},
{
closed = 1;
nodes = (
(403,81,o),
(340,47,c),
(210,35,o),
(137,156,o),
(137,254,cs),
(137,333,o),
(164,433,o),
(240,454,c),
(359,454,o),
(419,315,o),
(419,223,cs),
(419,136,o)
);
}
);
width = 556;
}
);
unicode = 111;
},
{
glyphname = p;
lastChange = "2023-05-12 04:15:57 +0000";
layers = (
{
layerId = m01;
shapes = (
{
closed = 1;
nodes = (
(146,-233,l),
(282,-238,l),
(282,-199,l),
(188,-183,l),
(187,-183,l),
(187,24,l),
(187,32,l),
(187,38,l),
(187,43,l),
(231,17,o),
(291,0,o),
(342,0,cs),
(454,0,o),
(566,104,o),
(566,268,cs),
(566,395,o),
(491,503,o),
(365,503,cs),
(332,503,o),
(304,495,o),
(277,482,c),
(277,482,o),
(208,396,o),
(188,369,c),
(188,386,l),
(188,392,l),
(188,399,l),
(190,501,l),
(21,473,l),
(21,436,l),
(103,436,l),
(103,-183,l),
(24,-199,l),
(24,-238,l)
);
},
{
closed = 1;
nodes = (
(189,123,o),
(187,301,o),
(188,339,c),
(300,436,o),
(342,432,o),
(355,431,cs),
(435,423,o),
(469,349,o),
(469,231,cs),
(469,169,o),
(426,63,o),
(373,52,cs),
(302,37,o),
(243,55,o),
(188,96,c)
);
}
);
width = 602;
},
{
layerId = "DEC8ED1F-2163-436F-ADFD-2EB8129389B9";
shapes = (
{
closed = 1;
nodes = (
(146,-233,l),
(282,-238,l),
(282,-199,l),
(188,-183,l),
(187,-183,l),
(187,24,l),
(187,32,l),
(187,38,l),
(187,43,l),
(231,17,o),
(291,0,o),
(342,0,cs),
(454,0,o),
(566,104,o),
(566,268,cs),
(566,395,o),
(491,503,o),
(365,503,cs),
(332,503,o),
(304,495,o),
(277,482,c),
(277,482,o),
(208,396,o),
(188,369,c),
(153,326,l),
(153,356,l),
(188,408,l),
(190,501,l),
(21,473,l),
(21,436,l),
(103,436,l),
(103,-183,l),
(24,-199,l),
(24,-238,l)
);
},
{
closed = 1;
nodes = (
(189,123,o),
(187,301,o),
(188,339,c),
(300,436,o),
(342,432,o),
(355,431,cs),
(435,423,o),
(469,349,o),
(469,231,cs),
(469,169,o),
(426,63,o),
(373,52,cs),
(302,37,o),
(243,55,o),
(188,96,c)
);
}
);
width = 602;
}
);
unicode = 112;
},
{
glyphname = q;
lastChange = "2023-05-12 04:15:57 +0000";
layers = (
{
background = {
shapes = (
{
closed = 1;
nodes = (
(419,712,l),
(418,447,l),
(376,475,o),
(290,500,o),
(268,500,cs),
(127,500,o),
(66,407,o),
(41,304,c),
(14,127,o),
(113,25,o),
(167,7,cs),
(237,-17,o),
(298,5,o),
(329,16,cs),
(332,17,o),
(394,100,o),
(418,127,c),
(417,17,l),
(502,17,l),
(502,712,l)
);
},
{
closed = 1;
nodes = (
(298,450,o),
(354,441,o),
(417,394,c),
(417,379,o),
(417,197,o),
(417,163,c),
(316,74,o),
(272,52,o),
(222,74,cs),
(155,104,o),
(119,199,o),
(140,313,cs),
(155,393,o),
(203,437,o),
(254,444,cs)
);
},
{
closed = 1;
nodes = (
(360,728,l),
(360,700,l),
(417,700,l),
(502,700,l),
(502,755,l)
);
},
{
closed = 1;
nodes = (
(573,28,l),
(500,45,l),
(417,45,l),
(417,4,l),
(573,0,l)
);
}
);
};
layerId = m01;
shapes = (
{
closed = 1;
nodes = (
(275,463,o),
(323,479,o),
(417,408,c),
(416,393,o),
(417,210,o),
(417,171,c),
(342,69,o),
(283,57,o),
(235,69,cs),
(169,86,o),
(112,200,o),
(140,313,cs),
(154,370,o),
(195,453,o),
(259,461,cs)
);
},
{
closed = 1;
nodes = (
(14,124,o),
(113,25,o),
(167,7,cs),
(237,-17,o),
(284,0,o),
(329,15,cs),
(335,17,o),
(395,93,o),
(418,127,c),
(418,121,l),
(418,115,l),
(418,109,l),
(418,-188,l),
(326,-204,l),
(326,-242,l),
(460,-238,l),
(578,-241,l),
(578,-204,l),
(502,-188,l),
(502,436,l),
(504,436,l),
(561,436,l),
(561,474,l),
(419,501,l),
(419,459,l),
(419,454,l),
(419,449,l),
(419,443,l),
(367,489,o),
(297,499,o),
(294,499,cs),
(150,517,o),
(70,421,o),
(41,301,c)
);
}
);
width = 574;
},
{
background = {
shapes = (
{
closed = 1;
nodes = (
(419,712,l),
(418,447,l),
(376,475,o),
(290,500,o),
(268,500,cs),
(127,500,o),
(66,407,o),
(41,304,c),
(14,127,o),
(113,25,o),
(167,7,cs),
(237,-17,o),
(298,5,o),
(329,16,cs),
(332,17,o),
(394,100,o),
(418,127,c),
(417,17,l),
(502,17,l),
(502,712,l)
);
},
{
closed = 1;
nodes = (
(298,450,o),
(354,441,o),
(417,394,c),
(417,379,o),
(417,197,o),
(417,163,c),
(316,74,o),
(272,52,o),
(222,74,cs),
(155,104,o),
(119,199,o),
(140,313,cs),
(155,393,o),
(203,437,o),
(254,444,cs)
);
},
{
closed = 1;
nodes = (
(360,728,l),
(360,700,l),
(417,700,l),
(502,700,l),
(502,755,l)
);
},
{
closed = 1;
nodes = (
(573,28,l),
(500,45,l),
(417,45,l),
(417,4,l),
(573,0,l)
);
}
);
};
layerId = "DEC8ED1F-2163-436F-ADFD-2EB8129389B9";
shapes = (
{
closed = 1;
nodes = (
(275,463,o),
(323,479,o),
(417,408,c),
(416,393,o),
(417,210,o),
(417,171,c),
(342,69,o),
(283,57,o),
(235,69,cs),
(169,86,o),
(112,200,o),
(140,313,cs),
(154,370,o),
(195,453,o),
(259,461,cs)
);
},
{
closed = 1;
nodes = (
(14,124,o),
(113,25,o),
(167,7,cs),
(237,-17,o),
(284,0,o),
(329,15,cs),
(335,17,o),
(395,93,o),
(418,127,c),
(452,170,l),
(452,140,l),
(418,94,l),
(418,-188,l),
(326,-204,l),
(326,-242,l),
(460,-238,l),
(578,-241,l),
(578,-204,l),
(502,-188,l),
(502,436,l),
(504,436,l),
(561,436,l),
(561,474,l),
(419,501,l),
(419,469,l),
(437,451,l),
(437,429,l),
(419,443,l),
(367,489,o),
(297,499,o),
(294,499,cs),
(150,517,o),
(70,421,o),
(41,301,c)
);
}
);
width = 574;
}
);
unicode = 113;
},
{
glyphname = r;
lastChange = "2023-05-19 12:56:31 +0000";
layers = (
{
background = {
shapes = (
{
closed = 1;
nodes = (
(224,-270,l),
(224,220,l),
(224,317,l),
(230,374,o),
(244,435,o),
(341,427,c),
(366,392,o),
(377,374,o),
(402,329,c),
(441,329,l),
(441,391,o),
(441,432,o),
(441,432,c),
(386,477,o),
(304,480,o),
(259,465,cs),
(207,448,o),
(139,371,o),
(139,286,c),
(139,220,l),
(139,-270,l)
);
},
{
closed = 1;
nodes = (
(182,-274,l),
(318,-280,l),
(318,-256,l),
(225,-235,l),
(139,-235,l),
(60,-254,l),
(60,-280,l)
);
},
{
closed = 1;
nodes = (
(150,219,l),
(37,198,l),
(37,165,l),
(377,165,l),
(377,219,l)
);
}
);
};
layerId = m01;
shapes = (
{
closed = 1;
nodes = (
(151,4,l),
(288,1,l),
(288,39,l),
(194,55,l),
(193,55,l),
(193,325,l),
(216,359,o),
(289,440,o),
(362,427,c),
(410,370,l),
(441,370,l),
(440,469,l),
(408,501,o),
(340,510,o),
(286,492,c),
(249,444,o),
(219,403,o),
(194,370,c),
(194,381,l),
(194,395,l),
(194,405,l),
(194,501,l),
(20,474,l),
(20,436,l),
(109,436,l),
(109,55,l),
(30,39,l),
(30,0,l)
);
}
);
width = 446;
},
{
background = {
shapes = (
{
closed = 1;
nodes = (
(224,-270,l),
(224,220,l),
(224,317,l),
(230,374,o),
(244,435,o),
(341,427,c),
(366,392,o),
(377,374,o),
(402,329,c),
(441,329,l),
(441,391,o),
(441,432,o),
(441,432,c),
(386,477,o),
(304,480,o),
(259,465,cs),
(207,448,o),
(139,371,o),
(139,286,c),
(139,220,l),
(139,-270,l)
);
},
{
closed = 1;
nodes = (
(182,-274,l),
(318,-280,l),
(318,-256,l),
(225,-235,l),
(139,-235,l),
(60,-254,l),
(60,-280,l)
);
},
{
closed = 1;
nodes = (
(150,219,l),
(37,198,l),
(37,165,l),
(377,165,l),
(377,219,l)
);
}
);
};
layerId = "DEC8ED1F-2163-436F-ADFD-2EB8129389B9";
shapes = (
{
closed = 1;
nodes = (
(151,4,l),
(288,1,l),
(288,39,l),
(194,55,l),
(193,55,l),
(193,325,l),
(216,359,o),
(289,440,o),
(362,427,c),
(410,370,l),
(441,370,l),
(440,469,l),
(408,501,o),
(340,510,o),
(286,492,c),
(249,444,o),
(219,407,o),
(194,374,c),
(157,325,l),
(157,355,l),
(194,410,l),
(194,501,l),
(20,474,l),
(20,436,l),
(109,436,l),
(109,55,l),
(30,39,l),
(30,0,l)
);
}
);
width = 446;
}
);
unicode = 114;
},
{
glyphname = s;
lastChange = "2023-05-12 04:15:57 +0000";
layers = (
{
background = {
shapes = (
{
closed = 1;
nodes = (
(270,505,l),
(270,188,l),
(125,116,l),
(78,212,l),
(46,212,l),
(53,29,l),
(110,27,o),
(245,120,o),
(269,147,c),
(269,15,l),
(443,42,l),
(443,70,l),
(354,70,l),
(354,505,l)
);
},
{
closed = 1;
nodes = (
(312,512,l),
(175,515,l),
(175,491,l),
(269,478,l),
(354,478,l),
(433,489,l),
(433,516,l)
);
}
);
};
layerId = m01;
shapes = (
{
closed = 1;
nodes = (
(356,361,l),
(386,362,l),
(384,470,l),
(265,527,o),
(157,505,o),
(108,465,cs),
(70,432,o),
(55,352,o),
(101,300,cs),
(157,237,o),
(296,211,o),
(325,164,cs),
(349,125,o),
(337,66,o),
(287,45,cs),
(246,28,o),
(178,39,o),
(121,126,cs),
(117,136,o),
(103,169,o),
(97,189,c),
(43,188,l),
(45,90,l),
(129,12,o),
(164,-6,o),
(241,-3,cs),
(395,4,o),
(423,115,o),
(421,142,cs),
(414,254,o),
(291,265,o),
(201,323,cs),
(163,348,o),
(131,379,o),
(153,432,cs),
(171,475,o),
(281,485,o),
(311,419,c)
);
}
);
width = 467;
},
{
associatedMasterId = m01;
background = {
shapes = (
{
closed = 1;
nodes = (
(292,505,l),
(292,188,l),
(147,116,l),
(100,212,l),
(68,212,l),
(75,29,l),
(132,27,o),
(267,120,o),
(291,147,c),
(291,15,l),
(465,42,l),
(465,70,l),
(376,70,l),
(376,505,l)
);
},
{
closed = 1;
nodes = (
(334,512,l),
(197,515,l),
(197,491,l),
(291,478,l),
(376,478,l),
(455,489,l),
(455,516,l)
);
}
);
};
layerId = "2C1297E0-5419-4C1A-A1E6-4503870C5086";
name = "May 1, 23, 10:13";
shapes = (
{
closed = 1;
nodes = (
(380,359,l),
(410,359,l),
(410,467,l),
(292,526,o),
(183,506,o),
(134,467,cs),
(95,435,o),
(79,355,o),
(124,302,cs),
(179,238,o),
(317,210,o),
(345,162,cs),
(369,123,o),
(356,64,o),
(305,44,cs),
(264,28,o),
(196,40,o),
(141,128,cs),
(137,138,o),
(124,191,o),
(118,211,c),
(64,211,l),
(64,93,l),
(147,14,o),
(182,-5,o),
(259,-3,cs),
(413,1,o),
(443,112,o),
(441,139,cs),
(436,251,o),
(313,264,o),
(224,324,cs),
(187,349,o),
(155,383,o),
(178,435,cs),
(197,478,o),
(307,486,o),
(336,420,c)
);
}
);
width = 489;
},
{
background = {
shapes = (
{
closed = 1;
nodes = (
(270,505,l),
(270,188,l),
(125,116,l),
(78,212,l),
(46,212,l),
(53,29,l),
(110,27,o),
(245,120,o),
(269,147,c),
(269,15,l),
(443,42,l),
(443,70,l),
(354,70,l),
(354,505,l)
);
},
{
closed = 1;
nodes = (
(312,512,l),
(175,515,l),
(175,491,l),
(269,478,l),
(354,478,l),
(433,489,l),
(433,516,l)
);
}
);
};
layerId = "DEC8ED1F-2163-436F-ADFD-2EB8129389B9";
shapes = (
{
closed = 1;
nodes = (
(356,361,l),
(386,362,l),
(384,470,l),
(265,527,o),
(157,505,o),
(108,465,cs),
(70,432,o),
(55,352,o),
(101,300,cs),
(157,237,o),
(296,211,o),
(325,164,cs),
(349,125,o),
(337,66,o),
(287,45,cs),
(246,28,o),
(178,39,o),
(121,126,cs),
(117,136,o),
(103,169,o),
(97,189,c),
(43,188,l),
(45,90,l),
(129,12,o),
(164,-6,o),
(241,-3,cs),
(395,4,o),
(423,115,o),
(421,142,cs),
(414,254,o),
(291,265,o),
(201,323,cs),
(163,348,o),
(131,379,o),
(153,432,cs),
(171,475,o),
(281,485,o),
(311,419,c)
);
}
);
width = 467;
},
{
associatedMasterId = "DEC8ED1F-2163-436F-ADFD-2EB8129389B9";
background = {
shapes = (
{
closed = 1;
nodes = (
(292,505,l),
(292,188,l),
(147,116,l),
(100,212,l),
(68,212,l),
(75,29,l),
(132,27,o),
(267,120,o),
(291,147,c),
(291,15,l),
(465,42,l),
(465,70,l),
(376,70,l),
(376,505,l)
);
},
{
closed = 1;
nodes = (
(334,512,l),
(197,515,l),
(197,491,l),
(291,478,l),
(376,478,l),
(455,489,l),
(455,516,l)
);
}
);
};
layerId = "9D48F967-DD6E-4F56-9CE9-A733A52E9970";
name = "May 1, 23, 10:13";
shapes = (
{
closed = 1;
nodes = (
(380,359,l),
(410,359,l),
(410,467,l),
(292,526,o),
(183,506,o),
(134,467,cs),
(95,435,o),
(79,355,o),
(124,302,cs),
(179,238,o),
(317,210,o),
(345,162,cs),
(369,123,o),
(356,64,o),
(305,44,cs),
(264,28,o),
(196,40,o),
(141,128,cs),
(137,138,o),
(124,191,o),
(118,211,c),
(64,211,l),
(64,93,l),
(147,14,o),
(182,-5,o),
(259,-3,cs),
(413,1,o),
(443,112,o),
(441,139,cs),
(436,251,o),
(313,264,o),
(224,324,cs),
(187,349,o),
(155,383,o),
(178,435,cs),
(197,478,o),
(307,486,o),
(336,420,c)
);
}
);
width = 489;
}
);
unicode = 115;
},
{
glyphname = t;
lastChange = "2023-05-12 04:15:57 +0000";
layers = (
{
layerId = m01;
shapes = (
{
closed = 1;
nodes = (
(399,87,o),
(398,100,o),
(397,118,c),
(356,83,l),
(262,25,o),
(208,90,o),
(208,191,cs),
(209,435,l),
(397,435,l),
(397,490,l),
(209,490,l),
(209,667,l),
(123,640,l),
(123,509,l),
(123,503,l),
(123,495,l),
(123,488,l),
(18,478,l),
(18,435,l),
(123,435,l),
(123,185,ls),
(120,17,o),
(240,-20,o),
(321,8,c),
(400,75,l)
);
}
);
width = 411;
},
{
layerId = "DEC8ED1F-2163-436F-ADFD-2EB8129389B9";
shapes = (
{
closed = 1;
nodes = (
(399,87,o),
(398,100,o),
(397,118,c),
(356,83,l),
(262,25,o),
(208,90,o),
(208,191,cs),
(209,435,l),
(397,435,l),
(397,490,l),
(209,490,l),
(209,667,l),
(123,640,l),
(123,509,l),
(123,508,l),
(123,490,l),
(123,488,l),
(18,478,l),
(18,435,l),
(123,435,l),
(123,185,ls),
(123,17,o),
(240,-20,o),
(321,8,c),
(400,75,l)
);
}
);
width = 411;
}
);
unicode = 116;
},
{
glyphname = u;
lastChange = "2023-05-12 04:15:57 +0000";
layers = (
{
layerId = m01;
shapes = (
{
closed = 1;
nodes = (
(503,501,l),
(329,474,l),
(329,435,l),
(417,436,l),
(419,436,l),
(419,175,l),
(319,88,l),
(286,73,o),
(262,73,o),
(246,79,cs),
(197,100,o),
(179,146,o),
(179,191,cs),
(180,446,l),
(180,501,l),
(6,474,l),
(6,435,l),
(94,436,l),
(94,147,ls),
(94,84,o),
(132,27,o),
(187,8,cs),
(218,-3,o),
(275,-7,o),
(297,5,cs),
(320,18,o),
(394,111,o),
(418,138,c),
(418,134,l),
(418,131,l),
(418,128,l),
(417,10,l),
(572,0,l),
(572,66,l),
(503,54,l)
);
}
);
width = 592;
},
{
layerId = "DEC8ED1F-2163-436F-ADFD-2EB8129389B9";
shapes = (
{
closed = 1;
nodes = (
(503,501,l),
(329,474,l),
(329,435,l),
(417,436,l),
(419,436,l),
(419,175,l),
(319,88,l),
(286,73,o),
(262,73,o),
(246,79,cs),
(197,100,o),
(179,146,o),
(179,191,cs),
(180,446,l),
(180,501,l),
(6,474,l),
(6,435,l),
(94,436,l),
(94,147,ls),
(94,84,o),
(132,27,o),
(187,8,cs),
(218,-3,o),
(275,-7,o),
(297,5,cs),
(320,18,o),
(394,111,o),
(418,138,c),
(450,175,l),
(450,145,l),
(418,105,l),
(417,10,l),
(572,0,l),
(572,66,l),
(503,54,l)
);
}
);
width = 592;
}
);
unicode = 117;
},
{
glyphname = v;
lastChange = "2023-05-12 04:15:57 +0000";
layers = (
{
background = {
shapes = (
{
closed = 1;
nodes = (
(424,473,l),
(424,175,l),
(324,88,l),
(291,73,o),
(262,72,o),
(240,79,c),
(191,100,o),
(173,146,o),
(173,191,c),
(174,473,l),
(88,473,l),
(88,147,l),
(88,84,o),
(126,27,o),
(181,8,cs),
(212,-3,o),
(267,-10,o),
(302,5,cs),
(325,15,o),
(399,111,o),
(423,138,c),
(422,10,l),
(577,0,l),
(577,56,l),
(508,44,l),
(508,473,l)
);
},
{
closed = 1;
nodes = (
(0,474,l),
(0,445,l),
(88,446,l),
(174,446,l),
(174,501,l)
);
},
{
closed = 1;
nodes = (
(334,474,l),
(334,445,l),
(422,446,l),
(508,446,l),
(508,501,l)
);
},
{
closed = 1;
nodes = (
(424,473,l),
(424,175,l),
(324,88,l),
(291,73,o),
(262,72,o),
(240,79,c),
(191,100,o),
(173,146,o),
(173,191,c),
(174,473,l),
(88,473,l),
(88,147,l),
(88,84,o),
(126,27,o),
(181,8,cs),
(212,-3,o),
(267,-10,o),
(302,5,cs),
(325,15,o),
(399,111,o),
(423,138,c),
(422,10,l),
(577,0,l),
(577,56,l),
(508,44,l),
(508,473,l)
);
},
{
closed = 1;
nodes = (
(0,474,l),
(0,445,l),
(88,446,l),
(174,446,l),
(174,501,l)
);
},
{
closed = 1;
nodes = (
(334,474,l),
(334,445,l),
(422,446,l),
(508,446,l),
(508,501,l)
);
}
);
};
layerId = m01;
shapes = (
{
closed = 1;
nodes = (
(301,0,l),
(466,447,l),
(527,462,l),
(527,500,l),
(452,498,l),
(353,500,l),
(353,462,l),
(414,448,l),
(277,80,l),
(275,87,l),
(274,91,l),
(272,96,l),
(156,448,l),
(218,462,l),
(218,500,l),
(103,498,l),
(6,500,l),
(6,462,l),
(66,447,l),
(210,0,l)
);
}
);
width = 532;
},
{
background = {
shapes = (
{
closed = 1;
nodes = (
(424,473,l),
(424,175,l),
(324,88,l),
(291,73,o),
(262,72,o),
(240,79,c),
(191,100,o),
(173,146,o),
(173,191,c),
(174,473,l),
(88,473,l),
(88,147,l),
(88,84,o),
(126,27,o),
(181,8,cs),
(212,-3,o),
(267,-10,o),
(302,5,cs),
(325,15,o),
(399,111,o),
(423,138,c),
(422,10,l),
(577,0,l),
(577,56,l),
(508,44,l),
(508,473,l)
);
},
{
closed = 1;
nodes = (
(0,474,l),
(0,445,l),
(88,446,l),
(174,446,l),
(174,501,l)
);
},
{
closed = 1;
nodes = (
(334,474,l),
(334,445,l),
(422,446,l),
(508,446,l),
(508,501,l)
);
},
{
closed = 1;
nodes = (
(424,473,l),
(424,175,l),
(324,88,l),
(291,73,o),
(262,72,o),
(240,79,c),
(191,100,o),
(173,146,o),
(173,191,c),
(174,473,l),
(88,473,l),
(88,147,l),
(88,84,o),
(126,27,o),
(181,8,cs),
(212,-3,o),
(267,-10,o),
(302,5,cs),
(325,15,o),
(399,111,o),
(423,138,c),
(422,10,l),
(577,0,l),
(577,56,l),
(508,44,l),
(508,473,l)
);
},
{
closed = 1;
nodes = (
(0,474,l),
(0,445,l),
(88,446,l),
(174,446,l),
(174,501,l)
);
},
{
closed = 1;
nodes = (
(334,474,l),
(334,445,l),
(422,446,l),
(508,446,l),
(508,501,l)
);
}
);
};
layerId = "DEC8ED1F-2163-436F-ADFD-2EB8129389B9";
shapes = (
{
closed = 1;
nodes = (
(301,0,l),
(466,447,l),
(527,462,l),
(527,500,l),
(452,498,l),
(353,500,l),
(353,462,l),
(414,448,l),
(277,80,l),
(268,58,l),
(250,67,l),
(266,110,l),
(156,448,l),
(218,462,l),
(218,500,l),
(103,498,l),
(6,500,l),
(6,462,l),
(66,447,l),
(210,0,l)
);
}
);
width = 532;
}
);
unicode = 118;
},
{
glyphname = w;
lastChange = "2023-05-12 04:15:57 +0000";
layers = (
{
layerId = m01;
shapes = (
{
closed = 1;
nodes = (
(290,0,l),
(411,356,l),
(515,0,l),
(603,0,l),
(749,447,l),
(752,447,l),
(810,461,l),
(810,500,l),
(729,498,l),
(636,500,l),
(636,461,l),
(697,448,l),
(580,89,l),
(575,101,l),
(572,110,l),
(569,119,l),
(474,452,l),
(538,461,l),
(538,500,l),
(426,498,l),
(313,500,l),
(313,461,l),
(384,449,l),
(386,443,l),
(266,89,l),
(264,96,l),
(261,106,l),
(256,121,l),
(164,447,l),
(230,461,l),
(230,500,l),
(100,498,l),
(10,500,l),
(10,461,l),
(66,447,l),
(70,447,l),
(200,0,l)
);
}
);
width = 815;
},
{
layerId = "DEC8ED1F-2163-436F-ADFD-2EB8129389B9";
shapes = (
{
closed = 1;
nodes = (
(290,0,l),
(411,356,l),
(515,0,l),
(603,0,l),
(749,447,l),
(752,447,l),
(810,461,l),
(810,500,l),
(729,498,l),
(636,500,l),
(636,461,l),
(697,448,l),
(580,89,l),
(572,64,l),
(553,72,l),
(568,121,l),
(474,452,l),
(538,461,l),
(538,500,l),
(426,498,l),
(313,500,l),
(313,461,l),
(384,449,l),
(386,443,l),
(266,89,l),
(257,64,l),
(239,72,l),
(255,122,l),
(164,447,l),
(230,461,l),
(230,500,l),
(100,498,l),
(10,500,l),
(10,461,l),
(66,447,l),
(70,447,l),
(200,0,l)
);
}
);
width = 815;
}
);
unicode = 119;
},
{
glyphname = x;
lastChange = "2023-05-12 04:15:57 +0000";
layers = (
{
layerId = m01;
shapes = (
{
closed = 1;
nodes = (
(475,6,l),
(572,0,l),
(572,39,l),
(507,52,l),
(343,272,l),
(475,447,l),
(552,463,l),
(552,500,l),
(466,496,l),
(369,500,l),
(369,463,l),
(419,447,l),
(319,315,l),
(315,310,l),
(312,314,l),
(308,319,l),
(208,454,l),
(265,463,l),
(265,500,l),
(133,494,l),
(26,500,l),
(26,463,l),
(99,448,l),
(238,260,l),
(83,53,l),
(17,39,l),
(17,0,l),
(103,6,l),
(222,0,l),
(222,39,l),
(149,53,l),
(268,210,l),
(271,215,l),
(273,212,l),
(275,209,l),
(395,48,l),
(342,39,l),
(342,0,l)
);
}
);
width = 582;
},
{
layerId = "DEC8ED1F-2163-436F-ADFD-2EB8129389B9";
shapes = (
{
closed = 1;
nodes = (
(475,6,l),
(572,0,l),
(572,39,l),
(507,52,l),
(343,272,l),
(475,447,l),
(552,463,l),
(552,500,l),
(466,496,l),
(369,500,l),
(369,463,l),
(419,447,l),
(319,315,l),
(299,288,l),
(283,309,l),
(298,329,l),
(208,454,l),
(265,463,l),
(265,500,l),
(133,494,l),
(26,500,l),
(26,463,l),
(99,448,l),
(238,260,l),
(83,53,l),
(17,39,l),
(17,0,l),
(103,6,l),
(222,0,l),
(222,39,l),
(149,53,l),
(268,210,l),
(289,237,l),
(305,217,l),
(288,194,l),
(395,48,l),
(342,39,l),
(342,0,l)
);
}
);
width = 582;
}
);
unicode = 120;
},
{
glyphname = y;
lastChange = "2023-05-12 04:15:57 +0000";
layers = (
{
background = {
shapes = (
{
closed = 1;
nodes = (
(294,-4,c),
(294,487,l),
(118,460,l),
(118,431,l),
(209,431,l),
(208,-111,l),
(205,-181,o),
(180,-223,o),
(118,-222,c),
(70,-123,l),
(36,-123,l),
(37,-227,l),
(210,-316,o),
(294,-197,o)
);
},
{
closed = 1;
nodes = (
(181,671,l),
(176,648,o),
(171,628,o),
(182,595,cs),
(189,574,o),
(195,569,o),
(216,553,c),
(293,568,l),
(296,594,o),
(303,624,o),
(288,652,cs),
(278,671,o),
(275,676,o),
(259,686,c)
);
}
);
};
layerId = m01;
shapes = (
{
closed = 1;
nodes = (
(267,0,l),
(265,-6,l),
(264,-9,l),
(262,-15,l),
(219,-129,ls),
(193,-199,o),
(171,-222,o),
(118,-222,c),
(70,-123,l),
(36,-123,l),
(37,-227,l),
(132,-281,o),
(221,-268,o),
(259,-184,c),
(497,447,l),
(561,461,l),
(561,500,l),
(487,498,l),
(380,500,l),
(380,461,l),
(433,450,l),
(297,81,l),
(294,90,l),
(290,103,l),
(287,112,l),
(169,450,l),
(215,461,l),
(215,500,l),
(99,498,l),
(5,500,l),
(5,461,l),
(74,447,l),
(229,0,l)
);
}
);
width = 561;
},
{
background = {
shapes = (
{
closed = 1;
nodes = (
(294,-4,c),
(294,487,l),
(118,460,l),
(118,431,l),
(209,431,l),
(208,-111,l),
(205,-181,o),
(180,-223,o),
(118,-222,c),
(70,-123,l),
(36,-123,l),
(37,-227,l),
(210,-316,o),
(294,-197,o)
);
},
{
closed = 1;
nodes = (
(181,671,l),
(176,648,o),
(171,628,o),
(182,595,cs),
(189,574,o),
(195,569,o),
(216,553,c),
(293,568,l),
(296,594,o),
(303,624,o),
(288,652,cs),
(278,671,o),
(275,676,o),
(259,686,c)
);
}
);
};
layerId = "DEC8ED1F-2163-436F-ADFD-2EB8129389B9";
shapes = (
{
closed = 1;
nodes = (
(267,0,l),
(265,-6,l),
(264,-9,l),
(262,-15,l),
(219,-129,ls),
(193,-199,o),
(171,-222,o),
(118,-222,c),
(70,-123,l),
(36,-123,l),
(37,-227,l),
(132,-281,o),
(221,-268,o),
(259,-184,c),
(497,447,l),
(561,461,l),
(561,500,l),
(487,498,l),
(380,500,l),
(380,461,l),
(433,450,l),
(297,81,l),
(288,57,l),
(269,65,l),
(287,112,l),
(169,450,l),
(215,461,l),
(215,500,l),
(99,498,l),
(5,500,l),
(5,461,l),
(74,447,l),
(229,0,l)
);
}
);
width = 561;
}
);
unicode = 121;
},
{
glyphname = z;
lastChange = "2023-05-12 04:15:57 +0000";
layers = (
{
layerId = m01;
shapes = (
{
closed = 1;
nodes = (
(473,500,l),
(61,501,l),
(61,355,l),
(93,355,l),
(124,446,l),
(219,447,o),
(288,446,o),
(359,446,c),
(35,54,l),
(35,30,o),
(35,21,o),
(35,0,c),
(486,-1,l),
(487,145,l),
(453,145,l),
(422,54,l),
(346,55,o),
(215,54,o),
(148,54,c),
(472,446,l),
(473,446,o),
(473,446,o),
(473,446,c),
(473,447,l)
);
}
);
width = 525;
},
{
layerId = "DEC8ED1F-2163-436F-ADFD-2EB8129389B9";
shapes = (
{
closed = 1;
nodes = (
(473,500,l),
(61,501,l),
(61,355,l),
(93,355,l),
(124,446,l),
(219,447,o),
(288,446,o),
(359,446,c),
(35,54,l),
(35,30,o),
(35,21,o),
(35,0,c),
(486,-1,l),
(487,145,l),
(453,145,l),
(422,54,l),
(346,55,o),
(215,54,o),
(148,54,c),
(472,446,l),
(473,446,o),
(473,446,o),
(473,446,c),
(473,447,l)
);
}
);
width = 525;
}
);
unicode = 122;
},
{
glyphname = zero;
lastChange = "2023-05-19 13:42:12 +0000";
layers = (
{
layerId = m01;
shapes = (
{
closed = 1;
nodes = (
(505,-4,o),
(581,154,o),
(581,348,cs),
(581,542,o),
(505,700,o),
(312,700,cs),
(126,700,o),
(44,542,o),
(44,348,cs),
(44,154,o),
(126,-4,o),
(312,-4,cs)
);
},
{
closed = 1;
nodes = (
(440,76,o),
(384,56,c),
(202,24,o),
(144,199,o),
(139,377,cs),
(134,535,o),
(208,647,o),
(269,651,c),
(434,668,o),
(491,500,o),
(485,309,c),
(481,188,o)
);
}
);
width = 665;
},
{
layerId = "DEC8ED1F-2163-436F-ADFD-2EB8129389B9";
shapes = (
{
closed = 1;
nodes = (
(505,-4,o),
(581,154,o),
(581,348,cs),
(581,542,o),
(505,700,o),
(312,700,cs),
(126,700,o),
(44,542,o),
(44,348,cs),
(44,154,o),
(126,-4,o),
(312,-4,cs)
);
},
{
closed = 1;
nodes = (
(440,76,o),
(384,56,c),
(202,24,o),
(144,199,o),
(139,377,cs),
(134,535,o),
(208,647,o),
(269,651,c),
(434,668,o),
(491,500,o),
(485,309,c),
(481,188,o)
);
}
);
width = 665;
}
);
unicode = 48;
},
{
glyphname = one;
lastChange = "2023-05-19 13:42:40 +0000";
layers = (
{
layerId = m01;
shapes = (
{
closed = 1;
nodes = (
(234,10,l),
(235,690,l),
(149,690,l),
(149,10,l)
);
},
{
closed = 1;
nodes = (
(191,6,l),
(343,0,l),
(343,39,l),
(235,55,l),
(149,55,l),
(40,41,l),
(40,0,l)
);
},
{
closed = 1;
nodes = (
(151,690,l),
(66,690,l),
(66,644,l),
(166,607,l)
);
},
{
closed = 0;
nodes = (
(170,591,l)
);
}
);
width = 354;
},
{
layerId = "DEC8ED1F-2163-436F-ADFD-2EB8129389B9";
shapes = (
{
closed = 1;
nodes = (
(234,10,l),
(235,690,l),
(149,690,l),
(149,10,l)
);
},
{
closed = 1;
nodes = (
(191,6,l),
(343,0,l),
(343,39,l),
(235,55,l),
(149,55,l),
(40,41,l),
(40,0,l)
);
},
{
closed = 1;
nodes = (
(151,690,l),
(66,690,l),
(66,644,l),
(166,607,l)
);
},
{
closed = 0;
nodes = (
(170,591,l)
);
}
);
width = 354;
}
);
unicode = 49;
},
{
glyphname = two;
lastChange = "2023-05-19 13:47:07 +0000";
layers = (
{
layerId = m01;
shapes = (
{
closed = 1;
nodes = (
(545,0,l),
(545,150,l),
(496,150,l),
(473,81,l),
(204,80,l),
(194,80,l),
(186,80,l),
(177,80,l),
(401,323,o),
(519,421,o),
(525,533,cs),
(532,676,o),
(364,697,o),
(332,697,cs),
(206,697,o),
(144,656,o),
(72,603,c),
(72,518,l),
(148,518,l),
(172,602,l),
(294,697,o),
(380,629,o),
(401,590,cs),
(435,527,o),
(388,421,o),
(231,240,cs),
(55,38,l),
(55,0,l)
);
}
);
width = 600;
},
{
layerId = "DEC8ED1F-2163-436F-ADFD-2EB8129389B9";
shapes = (
{
closed = 1;
nodes = (
(545,0,l),
(545,150,l),
(496,150,l),
(473,81,l),
(210,80,l),
(176,43,l),
(143,43,l),
(177,80,l),
(401,323,o),
(519,421,o),
(525,533,cs),
(532,676,o),
(364,697,o),
(332,697,cs),
(206,697,o),
(144,656,o),
(72,603,c),
(72,518,l),
(148,518,l),
(172,602,l),
(294,697,o),
(380,629,o),
(401,590,cs),
(435,527,o),
(388,421,o),
(231,240,cs),
(55,38,l),
(55,0,l)
);
}
);
width = 600;
}
);
unicode = 50;
},
{
glyphname = three;
lastChange = "2023-05-19 13:53:03 +0000";
layers = (
{
layerId = m01;
shapes = (
{
closed = 1;
nodes = (
(69,95,l),
(136,27,l),
(240,-4,o),
(266,0,o),
(323,0,cs),
(459,0,o),
(558,103,o),
(557,201,cs),
(556,270,o),
(518,337,o),
(408,364,cs),
(404,365,o),
(401,366,o),
(397,367,c),
(391,368,o),
(386,369,o),
(380,370,c),
(386,371,o),
(391,372,o),
(394,373,c),
(400,375,o),
(405,377,o),
(409,379,cs),
(487,409,o),
(530,480,o),
(525,547,cs),
(521,622,o),
(447,696,o),
(300,697,cs),
(197,698,o),
(114,636,o),
(86,603,c),
(85,516,l),
(154,516,l),
(187,618,l),
(316,682,o),
(415,619,o),
(428,544,cs),
(444,448,o),
(339,387,o),
(258,387,cs),
(228,387,o),
(237,386,o),
(186,386,c),
(186,334,l),
(256,334,l),
(420,334,o),
(456,255,o),
(456,204,c),
(456,141,o),
(417,78,o),
(312,62,cs),
(263,55,o),
(193,62,o),
(132,91,c),
(69,141,l)
);
}
);
width = 600;
},
{
layerId = "DEC8ED1F-2163-436F-ADFD-2EB8129389B9";
shapes = (
{
closed = 1;
nodes = (
(69,95,l),
(136,27,l),
(240,-4,o),
(266,0,o),
(323,0,cs),
(459,0,o),
(558,103,o),
(557,201,cs),
(556,270,o),
(535,324,o),
(434,349,cs),
(426,351,o),
(409,351,o),
(400,351,c),
(394,351,o),
(379,351,o),
(371,351,c),
(371,355,o),
(371,372,o),
(371,374,c),
(380,375,o),
(401,376,o),
(409,379,cs),
(489,409,o),
(530,480,o),
(525,547,cs),
(521,622,o),
(447,696,o),
(300,697,cs),
(197,698,o),
(114,636,o),
(86,603,c),
(85,516,l),
(154,516,l),
(187,618,l),
(316,682,o),
(415,619,o),
(428,544,cs),
(444,448,o),
(339,387,o),
(258,387,cs),
(228,387,o),
(237,386,o),
(186,386,c),
(186,334,l),
(256,334,l),
(420,334,o),
(456,255,o),
(456,204,c),
(456,141,o),
(417,78,o),
(312,62,cs),
(263,55,o),
(193,62,o),
(132,91,c),
(69,141,l)
);
}
);
width = 600;
}
);
unicode = 51;
},
{
glyphname = four;
lastChange = "2023-05-19 13:54:39 +0000";
layers = (
{
layerId = m01;
shapes = (
{
closed = 1;
nodes = (
(406,6,l),
(530,0,l),
(530,39,l),
(447,55,l),
(446,55,l),
(446,212,l),
(552,212,l),
(552,269,l),
(447,269,l),
(447,424,l),
(361,424,l),
(361,295,l),
(361,285,l),
(361,277,l),
(361,269,l),
(160,269,l),
(354,690,l),
(267,690,l),
(47,212,l),
(361,212,l),
(361,55,l),
(268,39,l),
(268,0,l)
);
}
);
width = 600;
},
{
layerId = "DEC8ED1F-2163-436F-ADFD-2EB8129389B9";
shapes = (
{
closed = 1;
nodes = (
(406,6,l),
(530,0,l),
(530,39,l),
(447,55,l),
(446,55,l),
(446,212,l),
(552,212,l),
(552,269,l),
(447,269,l),
(447,424,l),
(361,424,l),
(361,293,l),
(405,293,l),
(405,269,l),
(361,269,l),
(160,269,l),
(354,690,l),
(267,690,l),
(47,212,l),
(361,212,l),
(361,55,l),
(268,39,l),
(268,0,l)
);
}
);
width = 600;
}
);
unicode = 52;
},
{
glyphname = five;
lastChange = "2023-05-19 13:43:36 +0000";
layers = (
{
layerId = m01;
shapes = (
{
closed = 1;
nodes = (
(373,2,o),
(482,61,o),
(512,167,cs),
(546,287,o),
(465,384,o),
(362,407,cs),
(294,422,o),
(224,419,o),
(74,400,c),
(74,336,l),
(129,334,l),
(193,341,o),
(252,346,o),
(295,337,cs),
(376,320,o),
(412,273,o),
(416,221,cs),
(425,98,o),
(315,58,o),
(257,51,cs),
(216,46,o),
(176,48,o),
(117,66,c),
(50,99,l),
(50,58,l),
(116,18,l),
(176,2,o),
(209,-1,o),
(275,0,cs)
);
},
{
closed = 1;
nodes = (
(132,691,l),
(73,691,l),
(74,336,l),
(129,334,l)
);
},
{
closed = 1;
nodes = (
(481,611,l),
(481,691,l),
(121,691,l),
(121,611,l)
);
}
);
width = 600;
},
{
layerId = "DEC8ED1F-2163-436F-ADFD-2EB8129389B9";
shapes = (
{
closed = 1;
nodes = (
(373,2,o),
(482,61,o),
(512,167,cs),
(546,287,o),
(465,384,o),
(362,407,cs),
(294,422,o),
(224,419,o),
(74,400,c),
(74,336,l),
(129,334,l),
(193,341,o),
(252,346,o),
(295,337,cs),
(376,320,o),
(412,273,o),
(416,221,cs),
(425,98,o),
(315,58,o),
(257,51,cs),
(216,46,o),
(176,48,o),
(117,66,c),
(50,99,l),
(50,58,l),
(116,18,l),
(176,2,o),
(209,-1,o),
(275,0,cs)
);
},
{
closed = 1;
nodes = (
(132,691,l),
(73,691,l),
(74,336,l),
(129,334,l)
);
},
{
closed = 1;
nodes = (
(481,611,l),
(481,691,l),
(121,691,l),
(121,611,l)
);
}
);
width = 600;
}
);
unicode = 53;
},
{
glyphname = six;
lastChange = "2023-05-19 13:59:16 +0000";
layers = (
{
background = {
shapes = (
{
closed = 1;
nodes = (
(383,-26,o),
(503,22,o),
(540,162,c),
(570,289,o),
(523,425,o),
(406,465,cs),
(348,485,o),
(217,450,o),
(155,370,c),
(155,371,o),
(155,371,o),
(155,372,c),
(155,374,o),
(155,376,o),
(155,378,c),
(155,382,o),
(156,385,o),
(156,387,cs),
(163,461,o),
(181,493,o),
(198,529,cs),
(243,624,o),
(349,656,o),
(405,645,c),
(452,553,l),
(524,566,l),
(512,645,l),
(367,736,o),
(243,677,o),
(192,642,cs),
(93,577,o),
(24,401,o),
(72,199,c),
(86,113,o),
(158,22,o),
(247,3,cs)
);
},
{
closed = 1;
nodes = (
(155,369,o),
(300,414,o),
(357,412,c),
(458,375,o),
(467,279,o),
(456,188,cs),
(447,114,o),
(401,53,o),
(323,48,c),
(230,58,o),
(170,126,o),
(164,227,cs)
);
}
);
};
layerId = m01;
shapes = (
{
closed = 1;
nodes = (
(383,-26,o),
(503,22,o),
(540,162,c),
(570,289,o),
(523,425,o),
(406,465,cs),
(348,485,o),
(217,450,o),
(155,370,c),
(155,371,o),
(155,371,o),
(155,372,c),
(155,374,o),
(155,376,o),
(155,378,c),
(155,382,o),
(156,385,o),
(156,387,cs),
(163,461,o),
(181,493,o),
(198,529,cs),
(243,624,o),
(349,656,o),
(405,645,c),
(452,553,l),
(524,566,l),
(512,645,l),
(367,736,o),
(243,677,o),
(192,642,cs),
(93,577,o),
(24,401,o),
(72,199,c),
(86,113,o),
(158,22,o),
(247,3,cs)
);
},
{
closed = 1;
nodes = (
(155,369,o),
(300,414,o),
(357,412,c),
(458,375,o),
(467,279,o),
(456,188,cs),
(447,114,o),
(401,53,o),
(323,48,c),
(230,58,o),
(170,126,o),
(164,227,cs)
);
}
);
width = 600;
},
{
layerId = "DEC8ED1F-2163-436F-ADFD-2EB8129389B9";
shapes = (
{
closed = 1;
nodes = (
(383,-26,o),
(503,22,o),
(540,162,c),
(570,289,o),
(523,425,o),
(406,465,cs),
(348,485,o),
(217,450,o),
(155,370,c),
(152,366,o),
(143,351,o),
(134,336,c),
(131,340,o),
(121,346,o),
(117,351,c),
(140,386,o),
(162,425,o),
(163,429,cs),
(176,481,o),
(181,493,o),
(198,529,cs),
(243,624,o),
(349,656,o),
(405,645,c),
(452,553,l),
(524,566,l),
(512,645,l),
(367,736,o),
(243,677,o),
(192,642,cs),
(93,577,o),
(24,401,o),
(72,199,c),
(86,113,o),
(158,22,o),
(247,3,cs)
);
},
{
closed = 1;
nodes = (
(155,369,o),
(300,414,o),
(357,412,c),
(458,375,o),
(467,279,o),
(456,188,cs),
(447,114,o),
(401,53,o),
(323,48,c),
(230,58,o),
(170,126,o),
(164,227,cs)
);
}
);
width = 600;
}
);
unicode = 54;
},
{
glyphname = seven;
lastChange = "2023-05-19 14:00:24 +0000";
layers = (
{
layerId = m01;
shapes = (
{
closed = 1;
nodes = (
(522,689,l),
(54,690,l),
(54,603,l),
(123,603,l),
(158,643,l),
(430,643,l),
(140,0,l),
(245,0,l),
(522,614,o),
(522,614,o),
(522,614,c),
(522,616,l)
);
}
);
width = 600;
},
{
layerId = "DEC8ED1F-2163-436F-ADFD-2EB8129389B9";
shapes = (
{
closed = 1;
nodes = (
(522,689,l),
(54,690,l),
(54,603,l),
(123,603,l),
(158,643,l),
(430,643,l),
(140,0,l),
(245,0,l),
(522,614,o),
(522,614,o),
(522,614,c),
(522,616,l)
);
}
);
width = 600;
}
);
unicode = 55;
},
{
glyphname = eight;
lastChange = "2023-05-19 14:00:31 +0000";
layers = (
{
layerId = m01;
shapes = (
{
closed = 1;
nodes = (
(414,450,o),
(368,417,o),
(310,396,c),
(219,395,o),
(168,483,o),
(175,545,cs),
(180,599,o),
(207,658,o),
(279,669,c),
(398,663,o),
(430,567,o),
(423,506,cs)
);
},
{
closed = 1;
nodes = (
(52,65,o),
(172,0,o),
(297,0,cs),
(444,0,o),
(547,100,o),
(547,187,cs),
(547,296,o),
(477,353,o),
(367,385,c),
(450,408,o),
(504,464,o),
(504,532,cs),
(504,622,o),
(415,697,o),
(298,697,cs),
(178,697,o),
(80,622,o),
(80,532,cs),
(80,456,o),
(145,394,o),
(232,373,c),
(113,338,o),
(52,272,o),
(52,181,cs)
);
},
{
closed = 1;
nodes = (
(136,267,o),
(200,331,o),
(281,356,c),
(395,323,o),
(432,275,o),
(442,191,cs),
(447,144,o),
(405,70,o),
(328,41,c),
(226,33,o),
(136,103,o),
(136,193,cs)
);
}
);
width = 600;
},
{
layerId = "DEC8ED1F-2163-436F-ADFD-2EB8129389B9";
shapes = (
{
closed = 1;
nodes = (
(414,450,o),
(368,417,o),
(310,396,c),
(219,395,o),
(168,483,o),
(175,545,cs),
(180,599,o),
(207,658,o),
(279,669,c),
(398,663,o),
(430,567,o),
(423,506,cs)
);
},
{
closed = 1;
nodes = (
(52,65,o),
(172,0,o),
(297,0,cs),
(444,0,o),
(547,100,o),
(547,187,cs),
(547,296,o),
(477,353,o),
(367,385,c),
(450,408,o),
(504,464,o),
(504,532,cs),
(504,622,o),
(415,697,o),
(298,697,cs),
(178,697,o),
(80,622,o),
(80,532,cs),
(80,456,o),
(145,394,o),
(232,373,c),
(113,338,o),
(52,272,o),
(52,181,cs)
);
},
{
closed = 1;
nodes = (
(136,267,o),
(200,331,o),
(281,356,c),
(395,323,o),
(432,275,o),
(442,191,cs),
(447,144,o),
(405,70,o),
(328,41,c),
(226,33,o),
(136,103,o),
(136,193,cs)
);
}
);
width = 600;
}
);
unicode = 56;
},
{
glyphname = nine;
lastChange = "2023-05-19 14:03:43 +0000";
layers = (
{
layerId = m01;
shapes = (
{
closed = 1;
nodes = (
(230,729,o),
(104,664,o),
(67,543,c),
(35,416,o),
(88,274,o),
(210,237,cs),
(267,220,o),
(380,217,o),
(446,297,c),
(446,296,o),
(446,294,o),
(446,293,c),
(446,291,o),
(446,290,o),
(446,288,c),
(446,280,o),
(445,276,o),
(444,270,cs),
(437,205,o),
(422,174,o),
(401,142,cs),
(341,47,o),
(241,32,o),
(182,43,c),
(132,135,l),
(57,122,l),
(69,43,l),
(222,-48,o),
(354,11,o),
(407,46,cs),
(511,111,o),
(566,264,o),
(534,489,c),
(519,575,o),
(468,676,o),
(373,697,cs)
);
},
{
closed = 1;
nodes = (
(444,314,o),
(312,280,o),
(259,289,c),
(172,327,o),
(138,419,o),
(147,488,cs),
(160,584,o),
(210,654,o),
(328,654,c),
(406,635,o),
(447,526,o),
(446,456,cs)
);
}
);
width = 600;
},
{
layerId = "DEC8ED1F-2163-436F-ADFD-2EB8129389B9";
shapes = (
{
closed = 1;
nodes = (
(230,729,o),
(104,664,o),
(67,543,c),
(35,416,o),
(88,274,o),
(210,237,cs),
(267,220,o),
(380,217,o),
(446,297,c),
(446,296,o),
(470,326,o),
(470,325,c),
(472,323,o),
(485,310,o),
(487,308,c),
(464,279,o),
(443,257,o),
(442,253,cs),
(437,205,o),
(422,174,o),
(401,142,cs),
(341,47,o),
(241,32,o),
(182,43,c),
(132,135,l),
(57,122,l),
(69,43,l),
(222,-48,o),
(354,11,o),
(407,46,cs),
(511,111,o),
(566,264,o),
(534,489,c),
(519,575,o),
(468,676,o),
(373,697,cs)
);
},
{
closed = 1;
nodes = (
(444,314,o),
(312,280,o),
(259,289,c),
(172,327,o),
(138,419,o),
(147,488,cs),
(160,584,o),
(210,654,o),
(328,654,c),
(406,635,o),
(447,526,o),
(446,456,cs)
);
}
);
width = 600;
}
);
unicode = 57;
},
{
glyphname = period;
lastChange = "2023-05-12 04:15:57 +0000";
layers = (
{
layerId = m01;
shapes = (
{
closed = 1;
nodes = (
(69,109,l),
(64,86,o),
(60,67,o),
(71,33,cs),
(78,13,o),
(83,8,o),
(104,-9,c),
(182,7,l),
(185,33,o),
(192,63,o),
(177,91,cs),
(167,109,o),
(163,114,o),
(147,124,c)
);
}
);
width = 250;
},
{
layerId = "DEC8ED1F-2163-436F-ADFD-2EB8129389B9";
shapes = (
{
closed = 1;
nodes = (
(69,109,l),
(64,86,o),
(60,67,o),
(71,33,cs),
(78,13,o),
(83,8,o),
(104,-9,c),
(182,7,l),
(185,33,o),
(192,63,o),
(177,91,cs),
(167,109,o),
(163,114,o),
(147,124,c)
);
}
);
width = 250;
}
);
unicode = 46;
},
{
glyphname = comma;
lastChange = "2023-05-12 04:15:57 +0000";
layers = (
{
layerId = m01;
shapes = (
{
closed = 1;
nodes = (
(368,33,o),
(375,63,o),
(360,91,cs),
(350,109,o),
(346,114,o),
(330,124,c),
(252,109,l),
(247,86,o),
(243,67,o),
(254,33,cs),
(261,13,o),
(266,8,o),
(287,-9,c),
(365,7,l)
);
}
